<?xml version="1.0" encoding="UTF-8"?>
<svg width="248px" height="43px" viewBox="0 0 248 43" version="1.1" xmlns="http://www.w3.org/2000/svg" xmlns:xlink="http://www.w3.org/1999/xlink">
    <!-- Generator: Sketch 48.2 (47327) - http://www.bohemiancoding.com/sketch -->
    <title>Slice 1</title>
    <desc>Created with Sketch.</desc>
    <defs>
        <polygon id="path-1" points="0.0453061224 0.434526316 35.8229335 0.434526316 35.8229335 41.5862807 0.0453061224 41.5862807"></polygon>
    </defs>
    <g id="Page-1" stroke="none" stroke-width="1" fill="none" fill-rule="evenodd">
        <path d="M197.832539,33.4831695 C198.192798,33.4831695 198.443435,33.2243548 198.443435,32.8513103 L198.443435,14.3346129 L204.518676,14.3346129 C204.879192,14.3346129 205.128799,14.0765971 205.128799,13.7030199 L205.128799,11.1492223 C205.128799,10.7753789 204.879192,10.5168305 204.518676,10.5168305 L188.343593,10.5168305 C187.98282,10.5168305 187.733728,10.7753789 187.733728,11.1492223 L187.733728,13.7030199 C187.733728,14.0765971 187.98282,14.3346129 188.343593,14.3346129 L194.419349,14.3346129 L194.419349,32.8513103 C194.419349,33.2243548 194.669729,33.4831695 195.029215,33.4831695 L197.832539,33.4831695 Z M225.518646,32.679566 C225.879676,33.081634 225.65786,33.4831695 225.212684,33.4831695 L221.69013,33.4831695 C221.218449,33.4831695 220.968069,33.368407 220.662879,32.9945636 L218.555111,30.5842856 C217.14084,32.5363126 215.169455,34 211.896508,34 C207.845919,34 204.655317,31.4741607 204.655317,27.1392815 C204.655317,23.8085073 206.37555,22.0287572 208.983305,20.5360463 C207.707476,19.0140458 207.12463,17.4068387 207.12463,16.0006657 C207.12463,12.439834 209.53836,10 213.172337,10 C216.89046,10 219.164977,12.2688885 219.164977,15.6273548 C219.164977,18.4972153 217.167859,20.1044223 215.058804,21.3111589 L218.166289,24.7854528 L219.914314,21.6264229 C220.13613,21.2536446 220.385995,21.1095924 220.829627,21.1095924 L223.520242,21.1095924 C223.964904,21.1095924 224.214511,21.4267202 223.937627,21.9139947 L220.829627,27.4249895 L225.518646,32.679566 Z M213.22792,13.5595003 C211.785858,13.5595003 210.953404,14.5074223 210.953404,15.7703419 C210.953404,16.7467548 211.452104,17.6078727 212.590006,18.8707924 C214.559332,17.693878 215.392043,16.976546 215.392043,15.7133601 C215.392043,14.5359132 214.671269,13.5595003 213.22792,13.5595003 Z M211.98014,30.3824528 C213.754669,30.3824528 214.948153,29.4931103 215.919307,27.9716422 L211.425599,22.9758804 C209.704851,23.9813167 208.594484,24.9851554 208.594484,26.9952293 C208.594484,28.976546 210.147969,30.3824528 211.98014,30.3824528 Z M190.430261,32.7360153 C190.568703,33.1098587 190.346887,33.4831695 189.95858,33.4831695 L187.073168,33.4831695 C186.657327,33.4831695 186.406948,33.282668 186.268506,32.8795349 L184.631646,28.0001331 L175.671508,28.0001331 L174.033362,32.8795349 C173.89492,33.282668 173.645055,33.4831695 173.229214,33.4831695 L170.510551,33.4831695 C170.149778,33.4831695 169.899913,33.1098587 170.039127,32.7360153 L177.557203,11.0909091 C177.696417,10.6885748 177.946025,10.517363 178.361351,10.517363 L182.079474,10.517363 C182.495315,10.517363 182.772199,10.6885748 182.911413,11.0909091 L190.430261,32.7360153 Z M183.355303,24.2393325 L180.165216,14.7657044 L176.946565,24.2393325 L183.355303,24.2393325 Z M229.90196,33.4831695 C229.541445,33.4831695 229.292352,33.2243548 229.292352,32.8513103 L229.292352,14.3346129 L223.215566,14.3346129 C222.854536,14.3346129 222.605443,14.0765971 222.605443,13.7030199 L222.605443,11.1492223 C222.605443,10.7753789 222.854536,10.5168305 223.215566,10.5168305 L239.390649,10.5168305 C239.751164,10.5168305 240,10.7753789 240,11.1492223 L240,13.7030199 C240,14.0765971 239.751164,14.3346129 239.390649,14.3346129 L233.314635,14.3346129 L233.314635,32.8513103 C233.314635,33.2243548 233.064771,33.4831695 232.704512,33.4831695 L229.90196,33.4831695 Z" id="Fill-1" fill="#000000"></path>
        <path d="M154.963007,5.67873611 C152.190576,3.97111111 148.971319,3 145.500257,3 C142.004785,3 138.688403,4.00568056 135.905951,5.75816667 C135.07191,6.28568056 134.601701,6.70922222 134.601701,7.25204167 C134.601701,8.85543056 138.247229,10.5780972 144.714521,10.5780972 C151.114493,10.5780972 156.078403,8.69076389 156.078403,6.873625 C156.078403,6.44031944 155.709944,6.13658333 154.963007,5.67873611 M157.717194,7.78958333 C157.794792,7.91413889 157.83359,8.04845833 157.83359,8.22763889 C157.83359,10.3390139 151.545646,14.0733056 141.534576,14.0733056 C134.179542,14.0733056 132.80309,11.2700139 132.80309,9.48718056 C132.80309,8.84988889 133.040764,8.19781944 133.564417,7.53598611 C133.593708,7.495875 133.569042,7.48083333 133.535382,7.51091667 C132.580319,8.34216667 131.702597,9.27818056 130.932021,10.2894028 C130.563563,10.7673056 130.335396,11.1905833 130.335396,11.4441806 C130.335396,15.138625 139.352604,17.8173611 147.783465,17.8173611 C156.766757,17.8173611 160.776375,14.8050694 160.776375,12.1564167 C160.776375,11.2101111 160.417938,10.6575278 159.50116,9.58693056 C158.905049,8.89 158.34234,8.32263889 157.746486,7.76451389 C157.717194,7.73997222 157.69741,7.75976389 157.717194,7.78958333 M128.783708,13.849 C128.241556,14.9546944 127.640306,16.8214444 127.460958,17.7872778 C127.382847,18.2010556 127.416764,18.3997639 127.557569,18.7087778 C128.692493,21.1832639 134.432375,25.1418611 147.822521,25.1418611 C155.991042,25.1418611 162.337313,23.0800972 163.36509,19.3165139 C163.554201,18.6238056 163.564222,17.8920417 163.32141,16.9064167 C163.049563,15.8054722 162.540813,14.5213889 162.10966,13.6202083 C162.095271,13.590125 162.070604,13.5951389 162.075229,13.6297083 C162.235306,18.5644306 148.840535,21.745875 142.082125,21.745875 C134.761521,21.745875 128.653437,18.748625 128.653437,14.9641944 C128.653437,14.6008194 128.726153,14.2374444 128.818139,13.8590278 C128.827389,13.8244583 128.798354,13.8189167 128.783708,13.849 M141.781757,29.6174167 C132.313868,29.6174167 127.848688,25.0869722 127.039056,21.9949861 C127.029035,21.9495972 127,21.9598889 127,22 C127,23.0405139 127.10175,24.3845 127.276472,25.2759167 C127.359208,25.7092222 127.703,26.391375 128.207125,26.9339306 C130.500097,29.3888889 136.216083,32.8292083 146.115382,32.8292083 C159.60291,32.8292083 162.6865,28.2137917 163.316271,26.6951111 C163.767208,25.6097361 164,23.6477222 164,22 C164,21.6012639 163.989979,21.28275 163.97559,20.96925 C163.97559,20.9191111 163.947069,20.914625 163.937049,20.9639722 C163.263083,24.6787361 151.739382,29.6174167 141.781757,29.6174167 M146.755688,37.9774167 C151.308229,37.9774167 156.311194,36.7028333 159.302542,34.1784722 C160.121424,33.4915694 160.902021,32.5756111 161.600396,31.345625 C162.002514,30.6384028 162.395382,29.797125 162.715535,28.970625 C162.730181,28.9307778 162.705514,28.9109861 162.676479,28.9555833 C159.894028,33.1627639 151.836764,35.7863472 143.517417,35.7863472 C137.636729,35.7863472 131.309729,33.8549444 128.832785,30.1655139 C128.808375,30.1306806 128.783708,30.1457222 128.798354,30.1853056 C131.106743,35.224 138.107194,37.9774167 146.755688,37.9774167 M134.155903,37.0065694 C137.292167,39.5011111 141.229069,41 145.500257,41 C150.173819,41 154.435243,39.2171667 157.687389,36.2898472 C157.726444,36.2544861 157.707431,36.2299444 157.668889,36.2544861 C156.209188,37.2556806 152.049514,39.4414722 145.500257,39.4414722 C139.808167,39.4414722 136.211458,38.1368056 134.179542,36.9717361 C134.141257,36.9522083 134.126611,36.9820278 134.155903,37.0065694" id="Fill-2" fill="#2493C5"></path>
        <path d="M118,0.223958333 L118,42.7760417" id="Line" stroke="#000000" stroke-width="0.9024" stroke-linecap="square"></path>
        <g id="DTMG-Logo-3-Lines">
            <g id="Group-4">
                <mask id="mask-2" fill="white">
                    <use xlink:href="#path-1"></use>
                </mask>
                <g id="Clip-2"></g>
                <path d="M17.9117755,41.5862807 C19.0217755,40.4765789 21.5287143,38.5868421 23.9254082,37.8611228 C26.6739796,37.0297895 33.7840204,35.752614 35.4444898,28.4795789 C36.7493061,22.7681228 34.283898,16.3513158 34.0014898,13.4763509 C33.751551,10.9340702 34.5179796,5.17207018 34.6433265,4.29396491 C34.8102041,3.12919298 33.7002041,2.68108772 32.9654898,2.95794737 C31.7444898,3.41887719 29.1250408,4.25247368 26.1272857,4.30829825 C22.9060204,4.36789474 18.9296531,2.00591228 17.9117755,0.434526316 C16.893898,2.00591228 12.9167755,4.36789474 9.6955102,4.30829825 C6.6985102,4.25247368 4.07906122,3.41887719 2.85730612,2.95794737 C2.12334694,2.68108772 1.01334694,3.12919298 1.17946939,4.29396491 C1.30557143,5.17207018 2.072,10.9340702 1.82206122,13.4763509 C1.53965306,16.3513158 -0.926510204,22.7681228 0.378306122,28.4795789 C2.03953061,35.752614 9.14957143,37.0297895 11.8973878,37.8611228 C14.2948367,38.5868421 16.8010204,40.4765789 17.9117755,41.5862807" id="Fill-1" fill="#DC3B41" mask="url(#mask-2)"></path>
                <path d="M17.9117755,40.0933509 C19.3079592,38.6381404 22.2505918,37.1399298 24.2357551,36.6194035 C29.6928776,35.1883333 32.9284898,32.7275263 34.1298571,29.0310351 C35.8484694,23.7450526 33.4563061,17.811807 32.9783265,13.8776842 C32.6513673,11.1845263 33.307551,5.94833333 33.418551,5.34784211 C33.6586735,4.05859649 33.5061429,3.88810526 32.449,4.26831579 C31.3661837,4.65908772 28.3117959,5.4074386 25.5647347,5.32219298 C22.8999796,5.23921053 19.8078367,3.61049123 17.9117755,2.07833333 C16.0149592,3.61049123 12.9228163,5.23921053 10.2580612,5.32219298 C7.5117551,5.4074386 4.45736735,4.65908772 3.37455102,4.26831579 C2.31740816,3.88810526 2.16487755,4.05859649 2.4042449,5.34784211 C2.516,5.94833333 3.17218367,11.1845263 2.84522449,13.8776842 C2.3672449,17.811807 -0.0256734694,23.7450526 1.69293878,29.0310351 C2.89430612,32.7275263 6.13067347,35.1883333 11.5870408,36.6194035 C13.5729592,37.1399298 16.5148367,38.6381404 17.9117755,40.0933509 Z" id="Stroke-3" stroke="#FFFFFE" stroke-width="0.5" stroke-linecap="round" mask="url(#mask-2)"></path>
            </g>
            <path d="M18.8632041,5.88345614 C18.8964286,6.28252632 18.9802449,6.665 18.9462653,7.09726316 C18.8133673,6.79852632 18.5468163,6.4824386 18.1805918,6.46508772 C17.7637755,6.46508772 17.4141633,6.76533333 17.2148163,7.11461404 C17.131,7.71359649 17.1642245,8.26203509 17.2480408,8.84517544 C17.5145918,8.79463158 17.7139388,8.52908772 17.9638776,8.3955614 C18.5634286,7.99649123 19.5790408,8.31257895 19.8455918,7.46389474 L19.8788163,7.41335088 C19.9618776,7.64721053 19.8455918,7.94594737 19.7459184,8.17905263 C19.1463673,9.19370175 17.6973265,8.36236842 17.2148163,9.44415789 C17.2480408,10.1751579 17.1143878,11.008 17.3144898,11.6733684 C17.4307755,11.8061404 17.6142653,11.7563509 17.7637755,11.7065614 C18.7136939,11.4236667 19.2626531,10.492 19.5125918,9.61012281 L19.5631837,9.61012281 C19.5125918,10.1593158 19.5125918,10.7409474 19.4121633,11.2569474 C18.3467143,11.9389123 17.2646531,12.5552456 16.1652245,13.1036842 C16.6983265,12.1388246 16.3313469,10.8412807 16.4151633,9.65991228 C16.3653265,8.99454386 16.3653265,8.3955614 16.3653265,7.71359649 C16.3487143,7.58007018 16.2150612,7.46389474 16.1153878,7.38015789 C15.9983469,7.33112281 15.865449,7.33112281 15.7484082,7.29717544 C15.8322245,7.16440351 16.0149592,7.03087719 16.1818367,6.96449123 C16.998102,6.44924561 17.8642041,6.03282456 18.6804694,5.56736842 C18.8798163,5.55001754 18.7801429,5.78312281 18.8632041,5.88345614" id="Fill-5" fill="#FFFFFE"></path>
            <path d="M30.9206735,7.74678947 C31.1872245,8.51173684 30.9206735,9.36042105 30.8708367,10.1593158 C30.6541224,11.9057193 30.5710612,13.836193 31.1034082,15.4664211 C31.1373878,15.5999474 30.9705102,15.5999474 30.9040612,15.5667544 C30.4872449,15.3336491 30.3045102,14.8515965 30.1383878,14.4517719 C29.7215714,13.6536316 29.4550204,12.7717544 28.9725102,12.0060526 L28.9219184,12.1056316 L28.9725102,15.6829298 C29.0057347,15.7991053 29.1552449,15.8828421 29.2383061,15.9326316 C28.9551429,16.2321228 28.5556939,16.3814912 28.2060816,16.564807 C28.2060816,16.3980877 28.3223673,16.2321228 28.3223673,16.0322105 C28.3223673,14.1522807 28.3223673,12.2059649 28.2393061,10.4090175 C28.1562449,10.1261228 27.8398571,10.1087719 27.6231429,10.0099474 C27.9395306,9.76024561 28.2725306,9.54298246 28.6387551,9.37701754 C28.7882653,9.31063158 28.9053061,9.46 28.9385306,9.57617544 C29.3055102,10.3584737 29.6045306,11.1905614 30.0213469,11.9562632 L30.1044082,11.9057193 C30.1044082,10.6919123 30.3211224,9.49319298 30.2206939,8.26203509 C30.1708571,8.01233333 29.7049592,7.93010526 29.8552245,7.64721053 C30.0379592,7.49708772 30.2206939,7.31377193 30.4706327,7.39750877 C30.6873469,7.39750877 30.7870204,7.61326316 30.9206735,7.74678947" id="Fill-6" fill="#FFFFFE"></path>
            <path d="M14.9162857,7.76338596 C14.866449,7.93010526 14.7833878,8.12926316 14.7327959,8.31257895 L14.7833878,13.1542281 C14.8166122,13.287 14.8,13.4371228 14.9162857,13.5367018 L15.1496122,13.6694737 C14.8166122,13.9523684 14.3333469,14.2020702 13.9172857,14.4019825 L13.9671224,14.252614 L14.0501837,13.9025789 L13.9837347,11.3572807 C13.8168571,11.1739649 13.6341224,11.4236667 13.4672449,11.4734561 C13.1674694,11.7065614 12.7680204,11.8227368 12.5346939,12.1056316 C12.5180816,12.9211228 12.4516327,13.8188421 12.5845306,14.5845439 C12.6343673,14.7512632 12.7846327,14.8176491 12.9341429,14.8674386 L13.0511837,14.8674386 C12.6011429,15.2333158 12.0514286,15.5335614 11.5190816,15.7659123 C11.6187551,15.5494035 11.7184286,15.2665088 11.7357959,14.983614 L11.6353673,10.2754912 C11.6519796,10.0589825 11.3854286,9.95940351 11.2691429,9.84322807 C11.6852041,9.50978947 12.1684694,9.26008772 12.6509796,9.06092982 C12.3021224,9.65991228 12.5513061,10.558386 12.5180816,11.3067368 L12.5845306,11.4070702 C13.0677959,11.2735439 13.4672449,10.9242632 13.9172857,10.6919123 L13.9837347,10.5417895 L13.9671224,8.86101754 C13.933898,8.72824561 13.8168571,8.61207018 13.6839592,8.57812281 L13.5669184,8.57812281 C13.5503061,8.41140351 13.7337959,8.42875439 13.8168571,8.31257895 C14.1838367,8.16245614 14.5002245,7.84636842 14.9162857,7.76338596" id="Fill-7" fill="#FFFFFE"></path>
            <path d="M10.486102,9.64331579 C10.6197551,10.3750702 10.5193265,11.2071579 10.8863061,11.8393333 C10.3199796,11.5398421 10.4196531,10.8578772 9.88655102,10.5085965 C9.72042857,10.4580526 9.62,10.5915789 9.55355102,10.7077544 C9.50371429,12.6540702 9.63736735,14.4351754 9.67059184,16.3317018 C9.72042857,16.4486316 9.83671429,16.531614 9.9537551,16.5482105 L10.153102,16.5482105 C9.62,16.9638772 9.00383673,17.2135789 8.42089796,17.5296667 C8.97061224,16.9472807 8.68744898,16.0322105 8.73804082,15.2838596 L8.67083673,11.3738772 C8.63761224,11.2735439 8.67083673,11.1407719 8.57116327,11.0570351 C8.08789796,11.2071579 8.07128571,11.7895439 7.87193878,12.1727719 C7.75489796,12.737807 7.72167347,13.353386 7.25502041,13.7524561 L7.18932653,13.7524561 C7.622,12.9709123 7.25502041,11.9389123 7.52157143,11.0909825 C8.4714898,10.558386 9.42065306,9.94280702 10.4196531,9.46 L10.486102,9.64331579" id="Fill-8" fill="#FFFFFE"></path>
            <path d="M26.1242653,11.4900526 C25.6576122,11.6401754 25.5247143,12.1222281 25.4582653,12.5378947 C25.241551,13.9025789 25.0912857,15.5494035 25.508102,16.8477018 C25.6243878,17.080807 25.7580408,17.4964737 26.1242653,17.4625263 C26.573551,17.3305088 26.6075306,16.8477018 26.7404286,16.4818246 C27.0235918,15.0673509 27.0568163,13.4197719 26.7736531,11.9894561 C26.6241429,11.7397544 26.4572653,11.4734561 26.1242653,11.4900526 Z M27.3399796,11.5564386 C28.0724286,13.2372105 27.9561429,15.3834386 27.2236939,17.0302632 C26.9737551,17.4466842 26.6407551,17.9460877 26.1242653,18.0283158 C25.7248163,18.0954561 25.3578367,17.9294912 25.0746735,17.6624386 C24.2923878,16.4644737 24.176102,14.8176491 24.4086735,13.3707368 C24.642,12.3885263 24.9916122,11.0570351 26.2239388,10.8578772 C26.7238163,10.8246842 27.0900408,11.1407719 27.3399796,11.5564386 Z" id="Fill-9" fill="#FFFFFE"></path>
            <path d="M24.0590612,12.0724386 C24.0092245,12.3055439 23.8597143,12.5552456 23.8257347,12.8381404 L23.8257347,15.6829298 C23.8597143,16.6809825 23.8257347,17.7122281 23.9254082,18.6604912 C23.9926122,18.7781754 24.0756735,18.8611579 24.2085714,18.9275439 L24.176102,18.9773333 C23.7426735,19.2768246 23.2933878,19.5423684 22.8267347,19.7422807 C23.0600612,19.3771579 23.109898,18.843807 23.0766735,18.3285614 L23.0268367,14.4683684 L22.9596327,13.1708246 C22.8931837,13.0372982 22.776898,12.9543158 22.6772245,12.8713333 C23.0268367,12.5718421 23.4595102,12.4217193 23.8257347,12.1554211 C23.909551,12.1554211 23.976,12.0724386 24.0590612,12.0724386" id="Fill-10" fill="#FFFFFE"></path>
            <path d="M22.2271837,13.3035965 C22.3608367,14.0029123 22.2936327,14.7844561 22.3608367,15.4664211 C22.0270816,15.0839474 22.1939592,14.4351754 21.6608571,14.1688772 C21.4781224,14.1190877 21.3618367,14.2684561 21.2614082,14.3846316 L21.2115714,14.5687018 L21.2281837,18.1618421 L21.2780204,20.0749649 C21.3278571,20.2416842 21.4947347,20.3578596 21.645,20.4415965 C21.2780204,20.7742807 20.8279796,21.0405789 20.3620816,21.1733509 L20.4791224,20.5743684 L20.4617551,17.4466842 L20.4119184,14.9006316 C20.3288571,14.7678596 20.1785918,14.7844561 20.0789184,14.8840351 C19.6130204,15.3502456 19.7126939,16.048807 19.4121633,16.564807 L19.3796939,16.5482105 C19.4461429,16.015614 19.3630816,15.3668421 19.3630816,14.8515965 L19.4295306,14.7007193 C20.3122449,14.2352632 21.1775918,13.6694737 22.0610612,13.1866667 L22.2271837,13.3035965" id="Fill-11" fill="#FFFFFE"></path>
            <path d="M16.864449,16.2977544 C16.6484898,16.6809825 16.6484898,17.1637895 16.5480612,17.5794561 L16.3313469,18.7442281 L15.7317959,22.0552281 C15.4320204,22.8873158 15.5822857,23.9683509 14.9495102,24.6178772 C14.9661224,24.0520877 14.7833878,23.5692807 14.6663469,23.0540351 L13.7670204,19.6427018 C13.6673469,19.2104386 13.5503061,18.6604912 13.0345714,18.5443158 L13.0345714,18.4779298 C13.5336939,18.1950351 13.9837347,17.7959649 14.5500612,17.6465965 C14.3167347,17.8962982 14.3997959,18.2953684 14.4164082,18.6272982 C14.5832857,19.5763158 14.866449,20.491386 15.0831633,21.4222982 L15.1828367,21.4562456 C15.4154082,20.6407544 15.4826122,19.7762281 15.6494898,18.9441404 C15.6985714,18.3949474 15.9492653,17.7627719 15.6827143,17.2301754 C15.6321224,17.1464386 15.5490612,17.0974035 15.4486327,17.0974035 C15.8322245,16.7647193 16.2981224,16.531614 16.7481633,16.2977544 L16.864449,16.2977544" id="Fill-12" fill="#FFFFFE"></path>
            <path d="M30.2712857,18.843807 C30.4207959,19.1267018 30.4207959,19.5265263 30.2712857,19.8252632 C29.8378571,21.1899474 29.2549184,22.5048421 28.7724082,23.8521754 C28.7550408,24.5341404 28.7391837,25.3164386 28.8056327,26.015 C28.8222449,26.1477719 29.0057347,26.2481053 29.0714286,26.3484386 C28.6221429,26.6977193 28.1064082,26.9300702 27.6231429,27.2295614 C27.7062041,26.9632632 27.8896939,26.6803684 27.905551,26.3642807 C27.905551,25.5661404 27.905551,24.7174561 27.8232449,23.9351579 C27.4230408,23.0698772 27.0069796,22.2219474 26.5403265,21.3891053 L26.2239388,21.1567544 C26.6905918,20.8572632 27.1232653,20.5245789 27.6397551,20.3412632 C27.5733061,20.6739474 27.3898163,21.1235614 27.6065306,21.4728421 C27.8730816,21.9548947 28.0225918,22.4716491 28.3223673,22.9371053 C28.4726327,23.0034912 28.4726327,22.7869825 28.5556939,22.7205965 C28.8886939,21.672 29.4550204,20.7403333 29.5713061,19.6261053 C29.5713061,19.2436316 29.4051837,18.877 29.0382041,18.7276316 L29.0714286,18.5443158 C29.3379796,18.3617544 29.7215714,18.3783509 30.0047347,18.5284737 C30.1542449,18.5609123 30.1874694,18.7442281 30.2712857,18.843807" id="Fill-13" fill="#FFFFFE"></path>
            <path d="M12.1352449,20.4415965 C12.1518571,21.9722456 12.1518571,23.4862982 12.2183061,25.0335439 C12.2681429,25.1497193 12.2515306,25.2998421 12.4184082,25.350386 C12.5845306,25.3994211 12.7015714,25.2832456 12.8344694,25.2168596 C13.4174082,24.6178772 13.1176327,23.6198246 13.7836327,23.0698772 L13.9172857,23.0698772 C13.7171837,23.5692807 13.6839592,24.1350702 13.7171837,24.7174561 C13.6839592,24.8834211 13.7005714,25.0667368 13.6673469,25.2327018 C12.9507551,25.7321053 12.1684694,26.1319298 11.4352653,26.564193 L11.3854286,26.531 L11.4352653,25.7652982 L11.3688163,21.8719123 L11.3355918,20.2250877 C11.2525306,19.9587895 10.9859796,19.842614 10.7526531,19.8252632 C11.3023673,19.4933333 11.8022449,19.0942632 12.3851837,18.877 C12.0846531,19.3100175 12.1850816,19.909 12.1352449,20.4415965" id="Fill-14" fill="#FFFFFE"></path>
            <path d="M25.4748776,21.5890175 C25.4748776,21.8560702 25.3412245,22.1057719 25.3412245,22.3886667 L25.3412245,24.6337193 L25.4242857,27.9786667 C25.4582653,28.1280351 25.6085306,28.227614 25.7248163,28.3279474 C25.3578367,28.6108421 24.975,28.8273509 24.5589388,28.9767193 C24.6752245,28.6274386 24.6087755,28.2774035 24.6087755,27.8783333 L24.5415714,24.8336316 L24.4592653,24.8502281 C24.1594898,25.6657193 23.9427755,26.497807 23.643,27.3125439 C23.4761224,27.2635088 23.376449,27.0635965 23.31,26.9142281 C23.043449,26.5136491 22.8931837,26.1145789 22.6100204,25.7321053 L22.4771224,25.8158421 C22.5435714,27.1458246 22.443898,28.3777368 22.5601837,29.7092281 C22.644,29.8254035 22.7935102,29.908386 22.8765714,30.0079649 C22.5103469,30.3074561 22.0436939,30.5405614 21.6276327,30.7238772 C21.7106939,30.4575789 21.8609592,30.1248947 21.8609592,29.775614 L21.8277347,26.9466667 L21.7605306,24.5514912 C21.6940816,24.3176316 21.444898,24.2014561 21.2447959,24.1184737 C21.5445714,23.9027193 21.8775714,23.5692807 22.2604082,23.5526842 C22.644,24.2014561 23.0268367,24.8502281 23.4096735,25.5155965 C23.5425714,25.5827368 23.5425714,25.3828246 23.6097755,25.3330351 C23.8929388,24.2685965 24.2085714,23.2365965 24.5257143,22.1721579 C24.7915102,21.9051053 25.1418776,21.7391404 25.4748776,21.5890175" id="Fill-15" fill="#FFFFFE"></path>
            <path d="M6.82234694,22.3547193 C6.37306122,22.9702982 6.45612245,23.9849474 6.67208163,24.6676667 C6.38967347,24.6676667 6.23940816,24.3847719 6.05667347,24.2346491 C5.9562449,24.2180526 5.75689796,24.2844386 5.69044898,24.1682632 C5.80673469,24.0015439 5.87318367,23.8189825 5.88979592,23.6198246 C5.85657143,23.3527719 5.7735102,23.0698772 5.49034694,22.9371053 C5.1075102,22.7379474 4.60763265,22.7869825 4.25802041,23.0366842 C3.97485714,23.3195789 3.7747551,23.669614 3.92502041,24.0679298 C4.45736735,25.2666491 5.97361224,25.6159298 6.58977551,26.8304912 C6.93863265,27.7289649 6.85557143,28.8605439 6.27263265,29.6254912 C5.75689796,30.2244737 5.00708163,30.5911053 4.14097959,30.424386 C3.6252449,30.3240526 3.1087551,29.8759474 2.9584898,29.359193 C2.80897959,28.843193 3.00832653,28.3445439 3.39191837,28.0450526 C3.67508163,27.8624912 4.1077551,27.8624912 4.37430612,28.0450526 C4.50795918,28.145386 4.57440816,28.2774035 4.59102041,28.4282807 C4.50795918,28.5602982 4.37430612,28.4109298 4.25802041,28.4773158 C4.1077551,28.5602982 3.94163265,28.6772281 3.89179592,28.843193 C3.90840816,29.0597018 3.85781633,29.2256667 3.99146939,29.3757895 C4.22479592,29.6918772 4.55779592,29.775614 4.92402041,29.7092281 C5.42389796,29.5757018 5.90640816,29.0762982 5.97361224,28.5444561 C6.20618367,26.5475965 3.57465306,26.2307544 3.14197959,24.5175439 C2.94187755,23.736 3.22504082,22.9537018 3.87442857,22.5206842 C4.50795918,22.1057719 5.34008163,22.1389649 6.02344898,22.4377018 C6.23940816,22.2551404 6.53918367,22.1057719 6.82234694,22.1721579 L6.82234694,22.3547193" id="Fill-16" fill="#FFFFFE"></path>
            <path d="M9.12389796,22.799807 L9.00383673,22.842807 C8.86414286,23.5813509 8.66253061,24.5590351 8.66253061,25.2975789 C8.94191837,25.1776316 9.26208163,25.0780526 9.46142857,24.8177895 L9.12389796,22.799807 Z M9.45387755,20.1918947 C9.27038776,20.3578596 9.287,20.6407544 9.287,20.8572632 C9.82010204,22.6542105 10.2535306,24.4843509 10.7692653,26.2812982 C10.8024898,26.4812105 11.0524286,26.6139825 11.0358163,26.8138947 C10.6031429,27.0967895 10.153102,27.3623333 9.67059184,27.5464035 C10.019449,26.9964561 9.80802041,26.4178421 9.64189796,25.8520526 C9.53089796,25.5193684 9.43802041,25.6023509 9.27265306,25.6619474 C9.05065306,25.7411579 8.77353061,25.9350351 8.66253061,25.9787895 C8.46544898,26.0557368 8.44581633,26.3469298 8.41259184,26.5136491 C8.33783673,26.8832982 7.96859184,27.821 8.53793878,28.0616491 C8.621,28.0450526 8.65422449,28.1114386 8.73804082,28.0782456 C8.27138776,28.5271053 7.58877551,28.81 7.05567347,29.1094912 C7.12212245,28.8605439 7.27238776,28.6606316 7.35544898,28.4282807 C7.85532653,26.048193 8.20493878,23.6024737 8.67083673,21.2231404 C8.85432653,20.8406667 8.98722449,20.3080702 9.45387755,20.1918947 Z" id="Fill-17" fill="#FFFFFE"></path>
            <path d="M19.3132449,25.8822281 C19.1297551,25.8988246 18.9130408,25.9984035 18.8632041,26.1817193 C18.7801429,27.013807 18.8465918,27.9281228 18.8798163,28.776807 C18.9130408,28.8937368 19.0466939,28.9103333 19.1463673,28.9269298 C19.4627551,28.9103333 19.7459184,28.6772281 19.9127959,28.4282807 C20.1619796,27.7289649 20.3786939,26.7309123 19.9294082,26.0647895 C19.7459184,25.9320175 19.5292041,25.8988246 19.3132449,25.8822281 Z M20.9616327,26.1145789 C21.3278571,26.8636842 21.0945306,27.8292982 20.6452449,28.4614737 C20.4617551,28.81 19.8622041,28.9269298 19.9618776,29.4089825 C20.2125714,30.424386 20.4949796,31.5220175 21.4275306,32.1549474 C21.645,32.2703684 21.9440204,32.2703684 22.2105714,32.2371754 C22.1773469,32.4702807 21.8941837,32.603807 21.6774694,32.6535965 C20.5123469,32.7199825 19.8961837,31.4556316 19.4627551,30.6069474 C19.3132449,30.1912807 19.1463673,29.775614 19.0300816,29.359193 L18.9462653,29.2762105 L18.8632041,29.3757895 C18.8465918,30.2244737 18.9130408,31.1063509 18.8798163,31.9550351 C18.9296531,32.121 19.1629796,32.087807 19.1629796,32.2371754 C18.7967551,32.5200702 18.3973061,32.7373333 17.9638776,32.9032982 C18.1639796,32.1383509 17.9306531,31.3228596 18.0137143,30.5405614 C17.9804898,29.2430175 17.9804898,27.8451404 17.9306531,26.5136491 C17.8808163,26.3816316 17.7471633,26.2812982 17.6308776,26.2647018 L17.4141633,26.2647018 C17.6308776,25.981807 18.0137143,25.7984912 18.330102,25.6159298 C18.9130408,25.2998421 19.7625306,25.0833333 20.3786939,25.4665614 C20.6120204,25.6332807 20.8279796,25.8822281 20.9616327,26.1145789 Z" id="Fill-18" fill="#FFFFFE"></path>
            <path d="M15.265898,28.9435263 L15.1496122,29.2762105 C15.0159592,30.1746842 14.7833878,31.0399649 14.7327959,31.9384386 C15.1322449,31.9052456 15.4826122,31.6223509 15.8322245,31.4224386 C15.865449,31.3062632 15.865449,31.2232807 15.8322245,31.1063509 C15.6155102,30.3904386 15.5490612,29.6254912 15.265898,28.9435263 Z M16.4483878,29.842 L17.1476122,32.9198947 C17.1642245,33.0700175 17.3477143,33.186193 17.4307755,33.2525789 C17.0811633,33.5520702 16.665102,33.735386 16.3147347,33.8681579 C16.5148367,33.3031228 16.2150612,32.7199825 16.0821633,32.1715439 C16.0315714,32.0048246 15.8156122,32.1051579 15.7317959,32.1549474 C15.2991224,32.3541053 14.8490816,32.5532632 14.4836122,32.8701053 C14.4164082,33.4690877 14.2170612,34.0680702 14.266898,34.6670526 C14.3499592,34.8164211 14.4836122,34.882807 14.6331224,34.8669649 L14.6165102,34.9499474 C14.1000204,35.2992281 13.5842857,35.6153158 13.0345714,35.8484211 C13.0677959,35.6485088 13.2671429,35.5149825 13.3509592,35.3158246 C13.7504082,34.2838246 13.8666939,33.153 14.0834082,32.054614 C14.3499592,30.5073684 14.6995714,28.9940702 14.9495102,27.4460702 C15.1496122,27.013807 15.265898,26.531 15.666102,26.1817193 C15.7823878,27.4626667 16.2150612,28.6108421 16.4483878,29.842 Z" id="Fill-19" fill="#FFFFFE"></path>
            <path d="M20.7539796,41.6383333 C20.9427551,41.6383333 21.1103878,41.6255088 21.1103878,41.3999474 C21.1103878,41.2188947 20.9457755,41.1849474 20.7917347,41.1849474 L20.4881837,41.1849474 L20.4881837,41.6383333 L20.7539796,41.6383333 Z M20.4881837,42.4621228 L20.2661837,42.4621228 L20.2661837,40.9971053 L20.8249592,40.9971053 C21.171551,40.9971053 21.3429592,41.1245965 21.3429592,41.4127719 C21.3429592,41.6752982 21.1783469,41.7892105 20.9631429,41.8171228 L21.3799592,42.4621228 L21.1315306,42.4621228 L20.7441633,41.8269298 L20.4881837,41.8269298 L20.4881837,42.4621228 Z M20.7577551,42.7880175 C21.3323878,42.7880175 21.7869592,42.3376491 21.7869592,41.7258421 C21.7869592,41.1245965 21.3323878,40.6704561 20.7577551,40.6704561 C20.1755714,40.6704561 19.7217551,41.1245965 19.7217551,41.7258421 C19.7217551,42.3376491 20.1755714,42.7880175 20.7577551,42.7880175 Z M19.4657755,41.7258421 C19.4657755,40.9971053 20.0577755,40.4584737 20.7577551,40.4584737 C21.4509388,40.4584737 22.0429388,40.9971053 22.0429388,41.7258421 C22.0429388,42.4621228 21.4509388,43 20.7577551,43 C20.0577755,43 19.4657755,42.4621228 19.4657755,41.7258421 Z" id="Fill-20" fill="#DC3B41"></path>
            <path d="M18.204,17.6564035 L18.0839388,17.6994035 C17.9442449,18.4379474 17.7426327,19.4148772 17.7426327,20.1541754 C18.0220204,20.0342281 18.3414286,19.9346491 18.5415306,19.6751404 L18.204,17.6564035 Z M19.0134694,18.2614211 C19.2626531,19.2104386 19.4295306,20.2084912 19.7126939,21.1567544 C19.7459184,21.3061228 19.9618776,21.3566667 19.9618776,21.4728421 C19.5790408,21.7723333 19.1629796,22.0220351 18.7303061,22.1887544 C18.7801429,21.9051053 18.8632041,21.5226316 18.8133673,21.1733509 L18.663102,20.5245789 C18.6132653,20.4084035 18.4637551,20.458193 18.3799388,20.491386 C18.0975306,20.7576842 17.664102,20.7908772 17.4806122,21.1401579 C17.464,21.6222105 17.2148163,22.0386316 17.3144898,22.5538772 C17.4141633,22.7537895 17.6308776,22.7205965 17.8309796,22.7537895 C17.2480408,23.0864737 16.7647755,23.4697018 16.1486122,23.7186491 L16.1652245,23.7186491 C16.8312245,22.2053509 16.8976735,20.458193 17.2812653,18.843807 C17.6308776,17.5296667 17.6142653,16.082 18.2802653,14.9006316 L18.3633265,14.8515965 C18.3134898,16.048807 18.8133673,17.114 19.0134694,18.2614211 Z" id="Fill-21" fill="#FFFFFE"></path>
            <path d="M43.6667959,9.18314035 C43.6667959,10.5463158 43.6667959,11.6688421 43.5958163,12.264807 C43.5391837,12.6767018 43.467449,12.9890175 43.1835306,13.0463509 C43.0551633,13.0742632 42.8845102,13.1029298 42.756898,13.1029298 C42.6715714,13.1029298 42.6436327,13.1451754 42.6436327,13.1874211 C42.6436327,13.2734211 42.7146122,13.3020877 42.8709184,13.3020877 C43.0838571,13.3020877 43.4108163,13.2734211 43.6954898,13.2734211 C43.9937551,13.2590877 44.2353878,13.2590877 44.2640816,13.2590877 C44.3343061,13.2590877 44.8175714,13.3020877 45.443551,13.3435789 C46.0544286,13.3865789 46.8080204,13.4295789 47.418898,13.4295789 C49.8352245,13.4295789 51.1151224,12.4352982 51.726,11.7963333 C52.5218776,10.9582105 53.2611224,9.58070175 53.2611224,7.79129825 C53.2611224,6.10222807 52.5928571,4.92312281 51.8830612,4.18457895 C50.1908776,2.43742105 47.589551,2.56566667 46.1827959,2.56566667 C45.3295306,2.56566667 44.4339796,2.60866667 44.2640816,2.60866667 C44.1923469,2.60866667 43.2967959,2.56566667 42.6572245,2.56566667 C42.5009184,2.56566667 42.4299388,2.59357895 42.4299388,2.67957895 L42.5439592,2.76482456 C42.6715714,2.76482456 42.9132041,2.77915789 43.0272245,2.80707018 C43.4961429,2.90664912 43.6094082,3.1337193 43.638102,3.61652632 C43.6667959,4.07142105 43.6667959,4.46898246 43.6667959,6.68385965 L43.6667959,9.18314035 Z M44.8606122,6.45678947 C44.8606122,5.36292982 44.8606122,3.91450877 44.8749592,3.43245614 C44.8749592,3.27629825 44.9172449,3.20463158 45.0456122,3.14805263 C45.1588776,3.09147368 45.6851837,3.04847368 45.969102,3.04847368 C47.6612857,3.04847368 49.2817347,3.24763158 50.6175102,4.65305263 C51.200449,5.26410526 51.9819796,6.42887719 51.9819796,8.23185965 C51.9819796,9.53845614 51.5840408,10.9016316 50.8447959,11.6258421 C50.0066327,12.4632105 48.7833673,12.9467719 47.4619388,12.9467719 C45.7848571,12.9467719 45.2298571,12.6487895 45.0456122,12.3787193 C44.9315918,12.2225614 44.902898,11.6537544 44.8893061,11.299193 C44.8749592,11.0291228 44.8606122,9.7232807 44.8606122,8.2182807 L44.8606122,6.45678947 Z M54.6678776,8.71466667 C54.6678776,10.8880526 56.1320204,13.4582456 59.5579184,13.4582456 C62.5715306,13.4582456 64.5755714,11.2282807 64.5755714,8.53059649 C64.5755714,5.71824561 62.4439184,4.00050877 59.628898,4.00050877 C56.1750612,4.00050877 54.6678776,6.76985965 54.6678776,8.71466667 Z M55.9621224,8.38801754 C55.9621224,5.76124561 57.468551,4.45464912 59.5579184,4.45464912 C61.5340204,4.45464912 63.2971837,5.97398246 63.2971837,8.87082456 C63.2971837,12.364386 61.0356531,12.9611053 59.9135714,12.9611053 C57.6527959,12.9611053 55.9621224,11.2003684 55.9621224,8.38801754 Z M67.7598367,7.66380702 C67.7598367,5.78915789 67.7598367,5.44892982 67.7741837,5.06494737 C67.8021224,4.6387193 67.873102,4.46898246 68.2144082,4.39731579 C68.3571224,4.36940351 68.442449,4.36940351 68.5270204,4.36940351 L68.6266939,4.26982456 C68.6266939,4.19891228 68.5700612,4.17024561 68.428102,4.17024561 C68.0445102,4.17024561 67.2342857,4.19815789 67.176898,4.19815789 C67.1066735,4.19815789 66.3243878,4.17024561 65.912102,4.17024561 C65.7701429,4.17024561 65.7127551,4.19891228 65.7127551,4.26982456 L65.8124286,4.36940351 C65.8977551,4.36940351 66.0540612,4.38373684 66.1960204,4.41240351 C66.4663469,4.46898246 66.5660204,4.65305263 66.5947143,5.06494737 C66.6226531,5.44892982 66.6226531,5.78915789 66.6226531,7.66380702 L66.6226531,9.7934386 C66.6226531,10.9582105 66.607551,11.9094912 66.5516735,12.4066316 C66.5093878,12.7619474 66.4663469,12.9890175 66.2247143,13.0463509 C66.1106939,13.0742632 65.9543878,13.1029298 65.8411224,13.1029298 C65.7701429,13.1029298 65.741449,13.1595088 65.741449,13.2025088 C65.741449,13.2734211 65.8124286,13.3020877 65.9400408,13.3020877 C66.3243878,13.3020877 67.1066735,13.2590877 67.176898,13.2590877 C67.2342857,13.2590877 68.0445102,13.3020877 68.7407143,13.3020877 C68.8826735,13.3020877 68.9393061,13.2590877 68.9393061,13.2025088 C68.9393061,13.1595088 68.9113673,13.1029298 68.8396327,13.1029298 C68.7263673,13.1029298 68.4560408,13.0742632 68.2717959,13.0463509 C67.9017959,12.9890175 67.8595102,12.7619474 67.8164694,12.4066316 C67.7598367,11.9094912 67.7598367,10.9582105 67.7598367,9.7934386 L67.7598367,7.66380702 Z M71.3986735,5.95964912 C71.7822653,6.38587719 73.1897755,7.86296491 74.6395714,9.38229825 C75.961,10.759807 77.766449,12.5348772 77.8948163,12.6487895 C78.5910204,13.287 78.7193878,13.3865789 78.847,13.3865789 C78.9323265,13.3865789 78.9459184,13.3156667 78.9459184,12.5205439 L78.9746122,5.44892982 C78.9746122,4.7247193 79.0033061,4.4825614 79.4148367,4.39731579 C79.557551,4.36940351 79.6572245,4.36940351 79.7146122,4.36940351 C79.7991837,4.36940351 79.8558163,4.29773684 79.8558163,4.25624561 C79.8558163,4.18457895 79.756898,4.17024561 79.6292857,4.17024561 C79.1173265,4.17024561 78.7042857,4.19815789 78.5623265,4.19815789 C78.4203673,4.19815789 77.8238367,4.17024561 77.2544898,4.17024561 C77.1132857,4.17024561 77.0136122,4.18457895 77.0136122,4.25624561 C77.0136122,4.29773684 77.0272041,4.36940351 77.1132857,4.36940351 C77.211449,4.36940351 77.4961224,4.38373684 77.7234082,4.42598246 C78.1077551,4.49689474 78.1794898,4.76696491 78.1930816,5.54850877 L78.3206939,11.5971754 C77.937102,11.2003684 76.6013265,9.76552632 75.3644694,8.48759649 C73.4314082,6.49903509 71.6116122,4.5685614 71.4130204,4.36940351 C71.2846531,4.24115789 71.0724694,4.00050877 70.929,4.00050877 C70.8300816,4.00050877 70.7598571,4.128 70.7598571,4.61080702 L70.7598571,11.5262632 C70.7598571,12.6193684 70.7168163,12.9467719 70.4042041,13.0312632 C70.2192041,13.0885965 69.9911633,13.1029298 69.8922449,13.1029298 L69.7918163,13.2025088 C69.7918163,13.287 69.863551,13.3020877 69.9911633,13.3020877 C70.5605102,13.3020877 71.0853061,13.2590877 71.1993265,13.2590877 C71.3133469,13.2590877 71.8109592,13.3020877 72.5222653,13.3020877 C72.6634694,13.3020877 72.7487959,13.2734211 72.7487959,13.2025088 L72.6491224,13.1029298 C72.5358571,13.1029298 72.2519388,13.0885965 72.023898,13.0312632 C71.6825918,12.9467719 71.5693265,12.6487895 71.5413878,11.6537544 L71.3986735,5.95964912 Z M88.2563265,12.3070526 C88.2563265,12.5348772 88.1574082,12.5914561 88.001102,12.6767018 C87.6741429,12.8615263 87.0912041,12.9037719 86.6502245,12.9037719 C85.4986939,12.9037719 84.4468367,12.5627895 83.4523673,11.6401754 C83.0113878,11.2282807 82.1301837,10.0069298 82.1301837,8.30277193 C82.1301837,6.89735088 82.6421429,5.81782456 83.3670408,5.26410526 C84.3192245,4.53989474 85.2291224,4.4825614 85.9827143,4.4825614 C87.6031633,4.4825614 88.5553469,4.96536842 88.8679592,5.42026316 C89.0673061,5.70466667 89.1382857,6.05922807 89.1518776,6.21538596 C89.1518776,6.32929825 89.1662245,6.39945614 89.2372041,6.39945614 C89.3225306,6.39945614 89.3799184,6.34287719 89.3799184,6.14447368 C89.3799184,4.93745614 89.450898,4.61080702 89.450898,4.44031579 C89.450898,4.38373684 89.4222041,4.32640351 89.2945918,4.32640351 C88.9812245,4.32640351 88.541,4.25624561 88.2842653,4.19891228 C88.0433878,4.14157895 87.1621837,4.00050877 86.365551,4.00050877 C85.4141224,4.00050877 84.1621633,4.085 83.0400816,4.76696491 C81.9308367,5.43459649 80.9507143,6.79777193 80.9507143,8.729 C80.9507143,10.234 81.6763673,11.5262632 82.4427959,12.1652281 C83.8367143,13.3435789 85.6127143,13.4582456 86.564898,13.4582456 C87.290551,13.4582456 88.4277347,13.33 89.2236122,12.9181053 C89.3799184,12.8328596 89.3935102,12.8185263 89.3935102,12.264807 L89.3935102,10.9159649 C89.3935102,10.4044912 89.3935102,10.0491754 89.4086122,9.66594737 C89.436551,9.24047368 89.5362245,9.05564912 89.8775306,8.99907018 C90.0187347,8.97040351 90.1048163,8.97040351 90.1901429,8.97040351 L90.2890612,8.87082456 C90.2890612,8.78557895 90.2331837,8.77124561 90.0904694,8.77124561 C89.7061224,8.77124561 88.9245918,8.79991228 88.8679592,8.79991228 C88.7962245,8.79991228 87.9588163,8.77124561 87.3894694,8.77124561 C87.2475102,8.77124561 87.1901224,8.78557895 87.1901224,8.87082456 L87.290551,8.97040351 C87.4038163,8.97040351 87.6167551,8.98473684 87.7171837,8.99907018 C88.2283878,9.09864912 88.2563265,9.24047368 88.2563265,10.2204211 L88.2563265,12.3070526 Z" id="Fill-22" fill="#000000"></path>
            <path d="M46.0687755,17.6481053 L47.6325918,17.6760175 C48.8264082,17.7046842 49.0967347,17.974 49.1390204,18.3428947 L49.1533673,18.4711404 C49.1677143,18.6416316 49.1956531,18.6846316 49.2530408,18.6846316 C49.3096735,18.6846316 49.3663061,18.6272982 49.3663061,18.5284737 C49.3663061,18.3858947 49.4093469,17.5198596 49.4093469,17.1502105 C49.4093469,17.0800526 49.4093469,17.008386 49.3519592,17.008386 C49.2953265,17.008386 49.1820612,17.0370526 48.9970612,17.0657193 C48.7977143,17.0936316 48.5137959,17.1222982 48.1015102,17.1222982 L43.3821224,17.1222982 C43.2401633,17.1222982 42.756898,17.1079649 42.4012449,17.0657193 C42.0606939,17.0227193 41.9323265,16.9238947 41.847,16.9238947 C41.8047143,16.9238947 41.7480816,17.0800526 41.7193878,17.1502105 C41.7050408,17.2497895 41.4490612,18.3293158 41.4490612,18.4575614 C41.4490612,18.5284737 41.5056939,18.5571404 41.5343878,18.5571404 C41.5917755,18.5571404 41.6340612,18.5420526 41.6627551,18.4424737 C41.7050408,18.3579825 41.7193878,18.2727368 41.8613469,18.0592456 C42.0463469,17.7748421 42.3446122,17.6903509 43.126898,17.6760175 L44.9315918,17.6481053 L44.9315918,22.7175789 C44.9315918,23.8815965 44.9315918,24.8336316 44.8749592,25.3300175 C44.8326735,25.6853333 44.7609388,25.9267368 44.5049592,25.9833158 C44.3916939,26.0119825 44.2497347,26.0406491 44.1357143,26.0406491 C44.0647347,26.0406491 44.0360408,26.0828947 44.0360408,26.1258947 C44.0360408,26.196807 44.0934286,26.2254737 44.2353878,26.2254737 C44.6046327,26.2254737 45.4722449,26.1824737 45.5288776,26.1824737 C45.5998571,26.1824737 46.3957347,26.2254737 47.0783469,26.2254737 C47.2203061,26.2254737 47.2769388,26.1824737 47.2769388,26.1258947 C47.2769388,26.0828947 47.2625918,26.0263158 47.1780204,26.0263158 C47.064,26.0263158 46.7793265,25.9976491 46.6094286,25.9697368 C46.2250816,25.9131579 46.168449,25.6853333 46.1254082,25.3300175 C46.0687755,24.8336316 46.0687755,23.8815965 46.0687755,22.7175789 L46.0687755,17.6481053 Z M59.0746531,20.587193 C59.0746531,18.7132982 59.0746531,18.3715614 59.1033469,17.9890877 C59.1320408,17.5621053 59.2030204,17.3923684 59.5292245,17.3214561 C59.6862857,17.2927895 59.7572653,17.2927895 59.8425918,17.2927895 L59.9566122,17.1932105 C59.9566122,17.1222982 59.8848776,17.0936316 59.7429184,17.0936316 C59.3729184,17.0936316 58.5777959,17.1222982 58.5060612,17.1222982 C58.4494286,17.1222982 57.6392041,17.0936316 57.0849592,17.0936316 C56.943,17.0936316 56.8856122,17.1222982 56.8856122,17.1932105 L56.9845306,17.2927895 C57.0993061,17.2927895 57.3122449,17.3063684 57.4119184,17.3214561 C57.8242041,17.3780351 57.8808367,17.577193 57.9095306,17.9890877 C57.9238776,18.3715614 57.9374694,18.7412105 57.9374694,20.6158596 L57.9374694,20.8715965 C57.9374694,20.9425088 57.9095306,20.9425088 57.8664898,20.9425088 L52.6502449,20.9425088 C52.6072041,20.9425088 52.5785102,20.9425088 52.5785102,20.8715965 L52.5785102,20.6158596 C52.5785102,18.7412105 52.5785102,18.3715614 52.5928571,17.9890877 C52.621551,17.5621053 52.6925306,17.3923684 53.0338367,17.3214561 C53.1757959,17.2927895 53.2611224,17.2927895 53.346449,17.2927895 L53.4461224,17.1932105 C53.4461224,17.1222982 53.3894898,17.0936316 53.2467755,17.0936316 C52.8631837,17.0936316 52.0673061,17.1222982 52.0099184,17.1222982 C51.9389388,17.1222982 51.1430612,17.0936316 50.5744694,17.0936316 C50.4325102,17.0936316 50.3751224,17.1222982 50.3751224,17.1932105 L50.4747959,17.2927895 C50.5888163,17.2927895 50.8017551,17.3063684 50.9014286,17.3214561 C51.3137143,17.3780351 51.3846939,17.577193 51.4133878,17.9890877 C51.4420816,18.3715614 51.4420816,18.7132982 51.4420816,20.587193 L51.4420816,22.7175789 C51.4420816,23.8815965 51.4420816,24.8336316 51.3703469,25.3300175 C51.3137143,25.6853333 51.2850204,25.9131579 51.0433878,25.9697368 C50.9301224,25.9976491 50.7738163,26.0263158 50.6597959,26.0263158 C50.5888163,26.0263158 50.5601224,26.0828947 50.5601224,26.1258947 C50.5601224,26.196807 50.631102,26.2254737 50.7594694,26.2254737 C51.1430612,26.2254737 51.9389388,26.1824737 52.0099184,26.1824737 C52.0673061,26.1824737 52.8631837,26.2254737 53.5593878,26.2254737 C53.702102,26.2254737 53.7587347,26.1824737 53.7587347,26.1258947 C53.7587347,26.0828947 53.7300408,26.0263158 53.6590612,26.0263158 C53.5457959,26.0263158 53.2754694,25.9976491 53.0904694,25.9697368 C52.7212245,25.9131579 52.6781837,25.6853333 52.6351429,25.3300175 C52.5785102,24.8336316 52.5785102,23.9102632 52.5785102,22.7454912 L52.5785102,21.5392281 L52.6502449,21.4675614 L57.8664898,21.4675614 L57.9374694,21.5392281 L57.9374694,22.7454912 C57.9374694,23.9102632 57.9374694,24.8185439 57.8808367,25.3164386 C57.8377959,25.671 57.7955102,25.9131579 57.5395306,25.9697368 C57.4255102,25.9976491 57.2843061,26.0263158 57.1695306,26.0263158 C57.0993061,26.0263158 57.0706122,26.0828947 57.0706122,26.1258947 C57.0706122,26.196807 57.128,26.2254737 57.2692041,26.2254737 C57.6392041,26.2254737 58.4494286,26.1824737 58.5060612,26.1824737 C58.5777959,26.1824737 59.3729184,26.2254737 60.0555306,26.2254737 C60.1974898,26.2254737 60.2692245,26.1824737 60.2692245,26.1258947 C60.2692245,26.0828947 60.2405306,26.0263158 60.1552041,26.0263158 C60.0555306,26.0263158 59.7716122,25.9976491 59.6009592,25.9697368 C59.2166122,25.9131579 59.1879184,25.6853333 59.1456327,25.3300175 C59.089,24.8336316 59.0746531,23.8815965 59.0746531,22.7175789 L59.0746531,20.587193 Z M62.9120816,22.7175789 C62.9120816,23.8815965 62.9120816,24.8336316 62.841102,25.3300175 C62.7844694,25.6853333 62.7557755,25.9267368 62.514898,25.9697368 C62.4001224,25.9833158 62.2438163,26.0263158 62.130551,26.0263158 C62.0595714,26.0263158 62.0316327,26.0828947 62.0316327,26.1258947 C62.0316327,26.196807 62.1026122,26.2254737 62.2309796,26.2254737 C62.4288163,26.2254737 62.7127347,26.210386 62.9551224,26.196807 C63.2246939,26.1824737 63.4663265,26.1824737 63.4950204,26.1824737 C63.6807755,26.1824737 64.0069796,26.1824737 64.5325306,26.210386 C65.0444898,26.2254737 65.7693878,26.253386 66.7079796,26.253386 C67.1904898,26.253386 67.3188571,26.253386 67.4041837,25.9410702 C67.4751633,25.6853333 67.5748367,24.8615439 67.5748367,24.7770526 C67.5748367,24.6910526 67.5604898,24.5922281 67.4895102,24.5922281 C67.4185306,24.5922281 67.3898367,24.6344737 67.361898,24.7770526 C67.2909184,25.2591053 67.1195102,25.4725965 66.7933061,25.6144211 C66.4663469,25.7419123 65.8690612,25.7419123 65.5413469,25.7419123 C64.306,25.7419123 64.0779592,25.5857544 64.0492653,24.7770526 C64.0356735,24.5348947 64.0492653,23.1294737 64.0492653,22.7175789 L64.0492653,21.7089649 C64.0492653,21.6667193 64.0636122,21.6237193 64.1345918,21.6237193 C64.3482857,21.6237193 65.6848163,21.638807 66.0253673,21.6802982 C66.5093878,21.7368772 66.6226531,21.8794561 66.6656939,22.0499474 C66.7215714,22.2068596 66.7215714,22.3335965 66.7215714,22.4475088 C66.7215714,22.5191754 66.7502653,22.5606667 66.806898,22.5606667 C66.8922245,22.5606667 66.9201633,22.4331754 66.9201633,22.3335965 C66.9201633,22.2483509 66.9496122,21.7949649 66.9783061,21.552807 C67.0062449,21.1552456 67.0764694,20.9560877 67.0764694,20.8859298 C67.0764694,20.8150175 67.0485306,20.7863509 67.0062449,20.7863509 C66.9632041,20.7863509 66.9065714,20.8565088 66.822,20.9425088 C66.6936327,21.07 66.5093878,21.0843333 66.2096122,21.1122456 C65.9256939,21.1409123 64.276551,21.1409123 64.1202449,21.1409123 C64.0492653,21.1409123 64.0492653,21.0986667 64.0492653,21.0126667 L64.0492653,17.7333509 C64.0492653,17.6481053 64.0636122,17.6051053 64.1202449,17.6051053 C64.2629592,17.6051053 65.7127551,17.6186842 65.9256939,17.6481053 C66.607551,17.7333509 66.7359184,17.8178421 66.822,18.017 C66.8778776,18.1588246 66.8922245,18.3579825 66.8922245,18.4424737 C66.8922245,18.5420526 66.9201633,18.5986316 66.991898,18.5986316 L67.1059184,18.4711404 C67.1346122,18.3293158 67.162551,17.7899298 67.176898,17.6760175 C67.2048367,17.3350351 67.2758163,17.1932105 67.2758163,17.1079649 L67.2191837,16.9940526 L67.0485306,17.051386 C66.9496122,17.0657193 66.7215714,17.1079649 66.4799388,17.1222982 C66.1960204,17.1366316 63.5803469,17.1222982 63.4950204,17.1222982 C63.4240408,17.1222982 62.6138163,17.0936316 62.0459796,17.0936316 C61.9032653,17.0936316 61.8466327,17.1222982 61.8466327,17.1932105 L61.9463061,17.2927895 C62.0595714,17.2927895 62.2725102,17.3063684 62.3721837,17.3214561 C62.7844694,17.3780351 62.8562041,17.577193 62.8841429,17.9890877 C62.9120816,18.3715614 62.9120816,18.7132982 62.9120816,20.587193 L62.9120816,22.7175789 Z M82.1732245,17.2497895 C82.1445306,17.0227193 82.0727959,16.9238947 81.9882245,16.9238947 C81.902898,16.9238947 81.8455102,17.008386 81.7888776,17.1222982 L78.1500408,24.605807 L74.3692449,17.1079649 C74.2975102,16.9661404 74.1985918,16.9238947 74.1132653,16.9238947 C74.0422857,16.9238947 73.984898,17.008386 73.970551,17.1366316 L73.0614082,25.0177018 C73.0040204,25.4725965 72.9904286,25.9131579 72.5781429,25.9833158 C72.393898,26.0119825 72.3078163,26.0263158 72.2081429,26.0263158 C72.1371633,26.0263158 72.0805306,26.0693158 72.0805306,26.1115614 C72.0805306,26.196807 72.1658571,26.2254737 72.2934694,26.2254737 C72.6347755,26.2254737 73.2320612,26.1824737 73.3453265,26.1824737 C73.445,26.1824737 74.0422857,26.2254737 74.5112041,26.2254737 C74.6531633,26.2254737 74.7384898,26.196807 74.7384898,26.1115614 L74.6388163,26.0263158 C74.5542449,26.0263158 74.3692449,26.0119825 74.155551,25.9546491 C73.970551,25.9131579 73.8572857,25.7984912 73.8572857,25.6144211 C73.8572857,25.4152632 73.8572857,25.1889474 73.8716327,25.0041228 L74.354898,19.5506667 L74.4115306,19.5506667 C74.6252245,20.047807 75.6340408,22.078614 76.0040408,22.8450702 C76.3166531,23.4983684 77.1412245,25.0463684 77.4674286,25.6423333 C77.7098163,26.0828947 77.7800408,26.196807 77.8948163,26.196807 C78.0080816,26.196807 78.0790612,26.0828947 78.3350408,25.5578421 L81.3486531,19.3945088 L81.3765918,19.3945088 L81.9738776,25.5012632 C82.0018163,25.7275789 81.9882245,25.9131579 81.9164898,25.9267368 L81.8319184,26.0263158 C81.8319184,26.0828947 81.888551,26.1258947 82.1868163,26.153807 C82.6421429,26.196807 84.034551,26.2254737 84.3192245,26.2254737 C84.4611837,26.2254737 84.574449,26.1824737 84.574449,26.1115614 L84.4755306,26.0263158 C84.3479184,26.0263158 84.0209592,26.0263158 83.6653061,25.9131579 C83.154102,25.7419123 83.0680204,25.0893684 83.0257347,24.662386 L82.1732245,17.2497895 Z M84.8024898,21.638807 C84.8024898,23.8106842 86.2666327,26.3816316 89.6917755,26.3816316 C92.7053878,26.3816316 94.7094286,24.1516667 94.7094286,21.4532281 C94.7094286,18.6416316 92.5777755,16.9238947 89.7627551,16.9238947 C86.3081633,16.9238947 84.8024898,19.6924912 84.8024898,21.638807 Z M86.0959796,21.3114035 C86.0959796,18.6846316 87.6024082,17.3780351 89.6917755,17.3780351 C91.6678776,17.3780351 93.4302857,18.8973684 93.4302857,21.7949649 C93.4302857,25.2870175 91.1702653,25.8844912 90.0466735,25.8844912 C87.7874082,25.8844912 86.0959796,24.1237544 86.0959796,21.3114035 Z M98.1927143,26.3816316 C98.8738163,26.3816316 99.656102,26.2956316 100.181653,25.9546491 C101.077204,25.3730175 101.346776,24.605807 101.346776,23.8959298 C101.346776,22.8594035 100.82198,22.0212807 99.300449,20.9847544 L98.945551,20.7433509 C97.7086939,19.9059825 97.325102,19.4654211 97.325102,18.6982105 C97.325102,17.8465088 98.0779388,17.3923684 98.9878367,17.3923684 C100.111429,17.3923684 100.522959,17.8465088 100.608286,17.9890877 C100.68002,18.1165789 100.778939,18.4424737 100.793286,18.5850526 C100.806878,18.6846316 100.82198,18.7412105 100.906551,18.7412105 C100.992633,18.7412105 101.006224,18.6559649 101.006224,18.4711404 C101.006224,17.6481053 101.062857,17.2497895 101.062857,17.1932105 C101.062857,17.1222982 101.034163,17.1079649 100.935245,17.1079649 C100.836327,17.1079649 100.736653,17.1079649 100.494265,17.051386 C100.196755,16.9804737 99.6983878,16.9095614 99.2015306,16.9095614 C97.5523878,16.9095614 96.429551,17.7612632 96.429551,19.1817719 C96.429551,20.0191404 96.8697755,20.7576842 98.2206531,21.7662982 L98.7892449,22.1917719 C99.8969796,23.0155614 100.365898,23.4274561 100.365898,24.2934912 C100.365898,25.2025263 99.7270816,25.8980702 98.4902245,25.8980702 C97.6520612,25.8980702 96.7134694,25.5857544 96.5148776,24.705386 C96.4718367,24.5348947 96.4718367,24.3651579 96.4718367,24.2655789 C96.4718367,24.166 96.429551,24.1237544 96.3585714,24.1237544 C96.2868367,24.1237544 96.258898,24.1939123 96.258898,24.3221579 C96.2437959,24.5213158 96.1879184,25.0041228 96.1879184,25.6008421 C96.1879184,25.9267368 96.2022653,25.9697368 96.3721633,26.0542281 C96.8841224,26.2956316 97.6090204,26.3816316 98.1927143,26.3816316 Z M107.033449,17.6481053 L108.59651,17.6760175 C109.790327,17.7046842 110.059898,17.974 110.102939,18.3428947 L110.118041,18.4711404 C110.131633,18.6416316 110.160327,18.6846316 110.216204,18.6846316 C110.274347,18.6846316 110.33098,18.6272982 110.33098,18.5284737 C110.33098,18.3858947 110.373265,17.5198596 110.373265,17.1502105 C110.373265,17.0800526 110.373265,17.008386 110.316633,17.008386 C110.259245,17.008386 110.14598,17.0370526 109.961735,17.0657193 C109.762388,17.0936316 109.477714,17.1222982 109.066184,17.1222982 L104.346796,17.1222982 C104.204082,17.1222982 103.721571,17.1079649 103.365918,17.0657193 C103.024612,17.0227193 102.897,16.9238947 102.811673,16.9238947 C102.768633,16.9238947 102.712,17.0800526 102.683306,17.1502105 C102.668959,17.2497895 102.41298,18.3293158 102.41298,18.4575614 C102.41298,18.5284737 102.470367,18.5571404 102.499061,18.5571404 C102.555694,18.5571404 102.59798,18.5420526 102.626673,18.4424737 C102.668959,18.3579825 102.683306,18.2727368 102.825265,18.0592456 C103.010265,17.7748421 103.308531,17.6903509 104.090061,17.6760175 L105.896265,17.6481053 L105.896265,22.7175789 C105.896265,23.8815965 105.896265,24.8336316 105.839633,25.3300175 C105.796592,25.6853333 105.725612,25.9267368 105.468878,25.9833158 C105.355612,26.0119825 105.213653,26.0406491 105.100388,26.0406491 C105.028653,26.0406491 104.999959,26.0828947 104.999959,26.1258947 C104.999959,26.196807 105.057347,26.2254737 105.199306,26.2254737 C105.569306,26.2254737 106.436918,26.1824737 106.492796,26.1824737 C106.563776,26.1824737 107.359653,26.2254737 108.042265,26.2254737 C108.184224,26.2254737 108.241612,26.1824737 108.241612,26.1258947 C108.241612,26.0828947 108.227265,26.0263158 108.141184,26.0263158 C108.027918,26.0263158 107.743245,25.9976491 107.573347,25.9697368 C107.189755,25.9131579 107.132367,25.6853333 107.090082,25.3300175 C107.033449,24.8336316 107.033449,23.8815965 107.033449,22.7175789 L107.033449,17.6481053 Z" id="Fill-23" fill="#000000"></path>
            <path d="M49.2243469,38.1538246 C49.2243469,38.3816491 49.1254286,38.4382281 48.9683673,38.5234737 C48.6414082,38.7082982 48.0584694,38.7505439 47.6182449,38.7505439 C46.4667143,38.7505439 45.4148571,38.4095614 44.4203878,37.486193 C43.9794082,37.0750526 43.0982041,35.8537018 43.0982041,34.1495439 C43.0982041,32.7433684 43.6094082,31.6645965 44.3343061,31.1101228 C45.2872449,30.3859123 46.1971429,30.3293333 46.9499796,30.3293333 C48.5704286,30.3293333 49.5226122,30.8128947 49.8352245,31.2662807 C50.0345714,31.5506842 50.105551,31.906 50.119898,32.0621579 C50.119898,32.1753158 50.1342449,32.2462281 50.2052245,32.2462281 C50.290551,32.2462281 50.3471837,32.1896491 50.3471837,31.9912456 C50.3471837,30.7842281 50.4189184,30.4575789 50.4189184,30.2863333 C50.4189184,30.2297544 50.3902245,30.1731754 50.2618571,30.1731754 C49.9492449,30.1731754 49.5082653,30.1022632 49.2530408,30.0456842 C49.0114082,29.9891053 48.1302041,29.8465263 47.3335714,29.8465263 C46.3813878,29.8465263 45.1309388,29.9317719 44.008102,30.6137368 C42.8988571,31.2813684 41.9187347,32.6437895 41.9187347,34.5757719 C41.9187347,36.0807719 42.6436327,37.3730351 43.4108163,38.0127544 C44.8039796,39.1911053 46.5807347,39.3050175 47.5329184,39.3050175 C48.2578163,39.3050175 49.395,39.1767719 50.1908776,38.7648772 C50.3471837,38.6796316 50.3615306,38.6652982 50.3615306,38.1115789 L50.3615306,36.7619825 C50.3615306,36.2512632 50.3615306,35.8959474 50.3758776,35.5127193 C50.4045714,35.0872456 50.5034898,34.9024211 50.8447959,34.8450877 C50.9867551,34.8164211 51.0720816,34.8164211 51.1574082,34.8164211 L51.2570816,34.7175965 C51.2570816,34.6323509 51.200449,34.6187719 51.0584898,34.6187719 C50.6741429,34.6187719 49.8926122,34.6466842 49.8352245,34.6466842 C49.765,34.6466842 48.9260816,34.6187719 48.3574898,34.6187719 C48.2147755,34.6187719 48.1581429,34.6323509 48.1581429,34.7175965 L48.2578163,34.8164211 C48.3718367,34.8164211 48.5847755,34.8315088 48.684449,34.8450877 C49.1956531,34.9446667 49.2243469,35.0872456 49.2243469,36.067193 L49.2243469,38.1538246 Z M52.7068776,34.5614386 C52.7068776,36.7340702 54.1710204,39.3050175 57.5969184,39.3050175 C60.6097755,39.3050175 62.6138163,37.0750526 62.6138163,34.376614 C62.6138163,31.5650175 60.4814082,29.8465263 57.667898,29.8465263 C54.2133061,29.8465263 52.7068776,32.6158772 52.7068776,34.5614386 Z M54.0003673,34.2347895 C54.0003673,31.6072632 55.5067959,30.3014211 57.5969184,30.3014211 C59.5722653,30.3014211 61.3346735,31.8207544 61.3346735,34.7175965 C61.3346735,38.2104035 59.0746531,38.8071228 57.9525714,38.8071228 C55.6910408,38.8071228 54.0003673,37.046386 54.0003673,34.2347895 Z M63.9073061,34.5614386 C63.9073061,36.7340702 65.3722041,39.3050175 68.7973469,39.3050175 C71.8109592,39.3050175 73.815,37.0750526 73.815,34.376614 C73.815,31.5650175 71.6825918,29.8465263 68.8690816,29.8465263 C65.4137347,29.8465263 63.9073061,32.6158772 63.9073061,34.5614386 Z M65.2007959,34.2347895 C65.2007959,31.6072632 66.7079796,30.3014211 68.7973469,30.3014211 C70.7726939,30.3014211 72.535102,31.8207544 72.535102,34.7175965 C72.535102,38.2104035 70.2758367,38.8071228 69.153,38.8071228 C66.8922245,38.8071228 65.2007959,37.046386 65.2007959,34.2347895 Z M75.8613265,35.6402105 C75.8613265,36.8049825 75.8613265,37.7570175 75.791102,38.2534035 C75.7337143,38.6087193 75.7050204,38.8357895 75.4641429,38.8931228 C75.3508776,38.9210351 75.1938163,38.9497018 75.0797959,38.9497018 C75.0080612,38.9497018 74.9801224,39.0062807 74.9801224,39.0492807 C74.9801224,39.1194386 75.051102,39.1488596 75.1794694,39.1488596 C75.3788163,39.1488596 75.6763265,39.1337719 75.9330612,39.1194386 C76.1882857,39.1194386 76.4163265,39.1058596 76.4450204,39.1058596 C76.500898,39.1058596 76.9275306,39.1337719 77.4681837,39.1767719 C78.0080816,39.2054386 78.6763469,39.2476842 79.2162449,39.2476842 C81.3486531,39.2476842 82.4707347,38.4095614 83.0113878,37.8565965 C83.7083469,37.1459649 84.3615102,35.981193 84.3615102,34.462614 C84.3615102,33.0277719 83.7649796,32.0191579 83.139,31.3945263 C81.6612653,29.9038596 79.372551,30.0170175 78.1213469,30.0170175 C77.3828571,30.0170175 76.5862245,30.0456842 76.4450204,30.0456842 C76.3732857,30.0456842 75.5630612,30.0170175 74.9952245,30.0170175 C74.8517551,30.0170175 74.7958776,30.0456842 74.7958776,30.1165965 L74.8947959,30.2161754 C75.0080612,30.2161754 75.2225102,30.2297544 75.3221837,30.2448421 C75.7337143,30.3014211 75.8046939,30.5005789 75.8326327,30.9124737 C75.8613265,31.2949474 75.8613265,31.6366842 75.8613265,33.5105789 L75.8613265,35.6402105 Z M76.9992653,30.7842281 C76.9992653,30.6416491 77.041551,30.5850702 77.1555714,30.5420702 C77.2695918,30.5005789 77.6675306,30.4575789 77.9084082,30.4575789 C79.4012449,30.4575789 80.7800612,30.6137368 81.9595306,31.8064211 C82.4707347,32.3178947 83.139,33.2978421 83.139,34.8315088 C83.139,35.9389474 82.8127959,37.089386 82.1581224,37.7004386 C81.4052857,38.4095614 80.3821224,38.7935439 79.2305918,38.7935439 C77.752102,38.7935439 77.3118776,38.537807 77.1555714,38.3099825 C77.0551429,38.1824912 77.0272041,37.7419298 77.0128571,37.4447018 C76.9992653,37.2168772 76.9992653,36.0951053 76.9992653,34.8164211 L76.9992653,30.7842281 Z" id="Fill-24" fill="#000000"></path>
            <path d="M84.5163061,30.7231228 C84.6469388,30.7231228 84.7624694,30.7140702 84.7624694,30.5594211 C84.7624694,30.434193 84.6492041,30.4115614 84.5427347,30.4115614 L84.3335714,30.4115614 L84.3335714,30.7231228 L84.5163061,30.7231228 Z M84.3335714,31.2904211 L84.1810408,31.2904211 L84.1810408,30.2810526 L84.5653878,30.2810526 C84.804,30.2810526 84.9217959,30.3700702 84.9217959,30.5684737 C84.9217959,30.7487719 84.8085306,30.8264737 84.6605306,30.8468421 L84.9482245,31.2904211 L84.7760612,31.2904211 L84.5095102,30.8536316 L84.3335714,30.8536316 L84.3335714,31.2904211 Z M84.5193265,31.5152281 C84.9157551,31.5152281 85.2283673,31.2036667 85.2283673,30.7834737 C85.2283673,30.3700702 84.9157551,30.057 84.5193265,30.057 C84.1183673,30.057 83.8065102,30.3700702 83.8065102,30.7834737 C83.8065102,31.2036667 84.1183673,31.5152281 84.5193265,31.5152281 Z M83.6290612,30.7834737 C83.6290612,30.2810526 84.0368163,29.9106491 84.5193265,29.9106491 C84.996551,29.9106491 85.4043061,30.2810526 85.4043061,30.7834737 C85.4043061,31.2904211 84.996551,31.6615789 84.5193265,31.6615789 C84.0368163,31.6615789 83.6290612,31.2904211 83.6290612,30.7834737 Z" id="Fill-25" fill="#000000"></path>
        </g>
    </g>
</svg>