<?xml version="1.0" encoding="UTF-8"?>
<svg width="130px" height="107px" viewBox="0 0 130 107" version="1.1" xmlns="http://www.w3.org/2000/svg" xmlns:xlink="http://www.w3.org/1999/xlink">
    <!-- Generator: Sketch 53.2 (72643) - https://sketchapp.com -->
    <title>heart</title>
    <desc>Created with Sketch.</desc>
    <g id="Page-1" stroke="none" stroke-width="1" fill="none" fill-rule="evenodd">
        <g id="heart" transform="translate(0.000000, -12.000000)">
            <rect id="Rectangle" x="0" y="0" width="130" height="130"></rect>
            <path d="M122.64878,69.2987991 C115.071192,78.8771196 106.70914,87.8077912 97.649304,95.9982396 L97.0993155,96.4982291 C89.8994664,103.198089 76.0997556,114.797846 76.0497567,114.847845 L75.5997661,115.197837 C73.012856,117.271324 69.8567094,118.50937 66.5499558,118.747763 L65.2999819,118.747763 L64.9999882,118.747763 L63.7500144,118.747763 C60.3576773,118.503451 57.1252188,117.210468 54.5002083,115.04784 L54.1502156,114.797846 C53.800223,114.497852 40.2505069,103.098091 33.3006526,96.598227 L32.9506599,96.2482343 C23.8866154,88.0259642 15.5244474,79.06172 7.95118385,69.448796 C2.89812434,63.162789 0.0989601658,55.3638598 0.00135046406,47.2992602 C-0.165877589,28.0657973 15.2188022,12.3015246 34.4506285,12 L35.5006065,12 C51.1502785,12 62.5500396,26.9996856 64.9999882,34.4495295 C66.9999463,26.9996856 78.799699,12 94.5993679,12 L95.6993448,12 C114.872288,12.3827977 130.166819,28.1232339 129.998626,47.2992602 C130.04291,55.2424905 127.458768,62.9773369 122.64878,69.2987991 Z" id="outer-red-heart" fill="#C9002C" fill-rule="nonzero"></path>
            <text id="DONATE" font-family="TrajanPro-Bold, Trajan Pro" font-size="20" font-weight="bold" fill="#FFFFFF">
                <tspan x="17.23" y="65">DONATE</tspan>
            </text>
        </g>
    </g>
</svg>
