<?xml version="1.0" encoding="UTF-8"?>
<svg width="1156px" height="949px" viewBox="0 0 1156 949" version="1.1" xmlns="http://www.w3.org/2000/svg" xmlns:xlink="http://www.w3.org/1999/xlink">
    <!-- Generator: Sketch 47.1 (45422) - http://www.bohemiancoding.com/sketch -->
    <title>heart_line_2</title>
    <desc>Created with Sketch.</desc>
    <defs></defs>
    <g id="Page-1" stroke="none" stroke-width="1" fill="none" fill-rule="evenodd">
        <g id="heart_line_2" transform="translate(-222.000000, -326.000000)">
            <rect id="Rectangle-path" x="0" y="0" width="1600" height="1600"></rect>
            <path d="M1312.23423,835.333333 C1244.87647,920.475744 1170.54556,999.861156 1090.012,1072.66667 L1085.12312,1077.11111 L1085.12312,1077.11111 C1021.12312,1136.66667 898.456449,1239.77778 898.012004,1240.22222 L898.012004,1240.22222 L894.012004,1243.33333 C871.016766,1261.76471 842.961542,1272.7698 813.56756,1274.88889 L802.456449,1274.88889 L799.789782,1274.88889 L788.678671,1274.88889 C758.523932,1272.71719 729.790365,1261.22376 706.456449,1242 L703.345338,1239.77778 C700.234227,1237.11111 579.789782,1135.77778 518.012004,1078 L518.012004,1078 L514.900893,1074.88889 C434.32992,1001.80051 359.99798,922.116671 292.678671,836.666667 C247.761645,780.789878 222.879664,711.46461 222.012004,639.777778 C220.525502,468.81008 357.281077,328.680275 528.234227,326 L537.56756,326 C676.678671,326 778.012004,459.333333 799.789782,525.555556 C817.56756,459.333333 922.456449,326 1062.90089,326 L1072.67867,326 C1243.1084,329.402717 1379.06264,469.320638 1377.56756,639.777778 C1377.9612,710.385749 1354.99057,779.14138 1312.23423,835.333333 Z" id="Shape" fill="#C9002C" fill-rule="nonzero"></path>
            <path d="M1275.3808,822.355972 C1212.89485,901.317083 1143.94008,974.939151 1069.23128,1042.45902 L1064.69599,1046.5808 C1005.32493,1101.81265 891.530387,1197.43794 891.118088,1197.85012 L887.407397,1200.73536 C866.075338,1217.82863 840.049268,1228.03476 812.781269,1230 L802.473792,1230 L789.692522,1230 C761.718788,1227.98596 735.063438,1217.32695 713.417197,1199.49883 L710.531104,1197.43794 C707.64501,1194.96487 595.911967,1100.98829 538.602399,1047.40515 L535.716306,1044.51991 C460.972801,976.737711 392.017076,902.83888 329.56678,823.592506 C287.898474,771.772345 264.816136,707.48006 264.011231,640.997658 C262.632243,482.442135 388.411496,373.485688 547.000095,371 L556.500095,371 C685.549698,371 779.797344,534.58548 799.999998,596 C816.49196,534.58548 934.409489,371 1064.69599,371 L1069.23128,371 C1227.33432,374.155682 1337.37571,482.915627 1335.98876,640.997658 C1336.35394,706.479524 1315.0447,770.243528 1275.3808,822.355972 Z" id="Shape" stroke="#FFFFFF" stroke-width="10" fill-rule="nonzero"></path>
            <text id="DONATE" font-family="TrajanPro-Regular, Trajan Pro" font-size="200" font-weight="normal" fill="#FFFFFF">
                <tspan x="329" y="818">DONATE</tspan>
            </text>
        </g>
    </g>
</svg>