<?xml version="1.0" encoding="UTF-8"?>
<svg width="130px" height="126px" viewBox="0 0 130 126" version="1.1" xmlns="http://www.w3.org/2000/svg" xmlns:xlink="http://www.w3.org/1999/xlink">
    <!-- Generator: Sketch 53.2 (72643) - https://sketchapp.com -->
    <title>Group</title>
    <desc>Created with Sketch.</desc>
    <g id="Page-1" stroke="none" stroke-width="1" fill="none" fill-rule="evenodd">
        <g id="Group" fill-rule="nonzero">
            <path d="M95,0 L94.6875,0 C82.28125,0 71.3125,6.615 65,16.38 C58.6875,6.615 47.71875,0 35.3125,0 L35,0 C15.65625,0.189 0,16.0335 0,35.595 C0,47.25 5.0625,63.7875 14.9375,77.3955 C33.75,103.32 65,126 65,126 C65,126 96.25,103.32 115.0625,77.3955 C124.9375,63.7875 130,47.25 130,35.595 C130,16.0335 114.34375,0.189 95,0 Z" id="outer-red-heart" fill="#C9002C"></path>
            <path d="M94.0769231,2 L93.7740385,2 C81.7495192,2 71.1182692,8.41146154 65,17.876 C58.8817308,8.41146154 48.2504808,2 36.2259615,2 L35.9230769,2 C17.1745192,2.18318462 2,17.5401615 2,36.4997692 C2,47.7961538 6.90673077,63.8248077 16.4778846,77.0141 C34.7115385,102.140923 65,124.123077 65,124.123077 C65,124.123077 95.2884615,102.140923 113.522115,77.0141 C123.093269,63.8248077 128,47.7961538 128,36.4997692 C128,17.5401615 112.825481,2.18318462 94.0769231,2 Z" id="white-heart" fill="#FFFFFF"></path>
            <path d="M93.1538462,4 L92.8605769,4 C81.2177885,4 70.9240385,10.2079231 65,19.372 C59.0759615,10.2079231 48.7822115,4 37.1394231,4 L36.8461538,4 C18.6927885,4.17736923 4,19.0468231 4,37.4045385 C4,48.3423077 8.75096154,63.8621154 18.0182692,76.6327 C35.6730769,100.961846 65,122.246154 65,122.246154 C65,122.246154 94.3269231,100.961846 111.981731,76.6327 C121.249038,63.8621154 126,48.3423077 126,37.4045385 C126,19.0468231 111.307212,4.17736923 93.1538462,4 Z" id="inner-red-heart" fill="#C9002C"></path>
        </g>
    </g>
</svg>