<?xml version="1.0" encoding="utf-8"?>
<svg width="640px" height="143px" viewBox="-7 -4 640 145" xmlns="http://www.w3.org/2000/svg">
  <title>TSA_logo_Horz_1line_new</title>
  <desc>Created with Sketch.</desc>
  <g id="icon" stroke="none" stroke-width="1" fill="none" fill-rule="evenodd" transform="matrix(1, 0, 0, 1, 0, 3.306259)">
    <g id="TSA_logo_Horz_1line_new" transform="translate(-7.000000, -7.000000)">
      <g id="Layer_1">
        <g id="Group">
          <g id="XMLID_647_" transform="translate(7.000000, 7.000000)" fill-rule="nonzero">
            <g id="Group">
              <path d="M55,125.7 C58.4,122.3 66,116.5 73.3,114.3 C81.7,111.8 103.4,107.9 108.4,85.7 C112.4,68.3 104.9,48.7 104,39.9 C103.2,32.1 105.6,14.5 106,11.9 C106.5,8.3 103.1,7 100.9,7.8 C97.2,9.2 89.2,11.8 80,11.9 C70.2,12 58.1,4.8 55,0 C51.9,4.8 39.8,12 29.9,11.8 C20.8,11.6 12.8,9.1 9,7.7 C6.8,6.9 3.4,8.2 3.9,11.8 C4.3,14.5 6.6,32.1 5.9,39.8 C5,48.6 -2.5,68.2 1.5,85.6 C6.6,107.8 28.3,111.7 36.6,114.2 C43.9,116.5 51.6,122.3 55,125.7" id="XMLID_677_" fill="#C9002C"/>
              <path d="M55,122 L54.5,121.5 C50.2,117 41.3,112.6 35.5,111.1 C18.6,106.7 8.6,98.9 4.9,87.5 C1,75.6 3.9,62.4 6.3,51.8 C7.2,47.9 8,44.2 8.4,40.9 C9.4,32.9 7.4,17.1 7.1,15 C6.7,12.8 6.6,11.4 7.4,10.8 C8.1,10.2 9.2,10.4 10.9,11 C14.1,12.1 23.3,14.4 31.7,14.2 C39.5,14 48.9,9.1 54.7,4.4 L55.1,4.1 L55.5,4.4 C61.3,9.1 70.6,13.9 78.5,14.2 C86.8,14.5 96.1,12.2 99.3,11 C101,10.4 102.1,10.2 102.8,10.8 C103.6,11.5 103.5,12.8 103.1,15 C102.7,17.1 100.8,32.8 101.8,40.9 C102.2,44.1 103,47.8 103.9,51.8 C106.3,62.4 109.2,75.5 105.3,87.5 C101.6,98.9 91.6,106.7 74.7,111.1 C68.9,112.6 60,117 55.7,121.5 L55,122 Z M8.4,11.8 C8.2,11.8 8.2,11.8 8.1,11.9 C7.9,12 7.8,12.7 8.2,14.9 C8.6,17 10.5,33 9.5,41.1 C9.1,44.4 8.3,48.1 7.4,52.1 C5.1,62.5 2.2,75.5 6,87.1 C9.6,98.1 19.3,105.5 35.7,109.9 C41.5,111.4 50.2,115.7 54.8,120.2 C59.4,115.7 68.2,111.4 73.9,109.9 C90.3,105.6 100.1,98.1 103.6,87.1 C107.4,75.5 104.5,62.5 102.2,52.1 C101.3,48.1 100.5,44.4 100.1,41.1 C99.1,32.9 101.1,17 101.5,14.9 C101.9,12.7 101.8,12 101.6,11.9 C101.5,11.8 101,11.7 99.3,12.3 C96,13.5 86.6,15.8 78.1,15.6 C72.8,15.4 63.5,12.8 54.8,5.9 C46.1,12.8 36.8,15.5 31.5,15.6 C23,15.9 13.5,13.5 10.3,12.3 C9.3,11.9 8.7,11.8 8.4,11.8 L8.4,11.8 Z" id="Shape" fill="#FFFFFF"/>
              <path d="M57.9,16.7 C58,17.9 58.3,19.1 58.2,20.4 C57.8,19.5 57,18.5 55.9,18.5 C54.6,18.5 53.6,19.4 53,20.5 C52.7,22.3 52.8,24 53.1,25.8 C53.9,25.6 54.5,24.8 55.3,24.4 C57.1,23.2 60.2,24.1 61,21.6 L61.1,21.4 C61.4,22.1 61,23 60.7,23.7 C58.9,26.8 54.5,24.3 53,27.6 C53.1,29.8 52.7,32.4 53.3,34.4 C53.7,34.8 54.2,34.7 54.7,34.5 C57.6,33.6 59.3,30.8 60,28.1 L60.2,28.1 C60,29.8 60,31.6 59.7,33.1 C56.4,35.2 53.1,37.1 49.8,38.7 C51.4,35.8 50.3,31.8 50.6,28.2 C50.4,26.2 50.4,24.3 50.4,22.3 C50.3,21.9 49.9,21.5 49.6,21.3 C49.2,21.1 48.8,21.1 48.5,21 C48.8,20.6 49.3,20.2 49.8,20 C52.3,18.4 54.9,17.2 57.4,15.7 C57.9,15.6 57.6,16.3 57.9,16.7" id="XMLID_674_" fill="#FFFFFF"/>
              <path d="M94.6,22.3 C95.4,24.6 94.6,27.2 94.4,29.7 C93.7,35 93.5,40.9 95.1,45.9 C95.2,46.3 94.7,46.3 94.5,46.2 C93.2,45.5 92.7,44 92.2,42.8 C90.9,40.4 90.1,37.7 88.6,35.3 L88.4,35.6 L88.6,46.5 C88.7,46.9 89.2,47.1 89.4,47.3 C88.5,48.2 87.3,48.7 86.3,49.2 C86.3,48.7 86.7,48.2 86.7,47.6 C86.7,41.9 86.7,35.9 86.4,30.4 C86.1,29.5 85.2,29.5 84.5,29.2 C85.5,28.4 86.5,27.8 87.6,27.3 C88.1,27.1 88.4,27.6 88.5,27.9 C89.6,30.3 90.5,32.8 91.8,35.2 C91.9,35.3 92,35.1 92.1,35 C92.1,31.3 92.8,27.6 92.5,23.9 C92.3,23.1 90.9,22.9 91.4,22 C92,21.5 92.5,21 93.3,21.2 C93.9,21.3 94.2,21.9 94.6,22.3" id="XMLID_673_" fill="#FFFFFF"/>
              <path d="M45.8,22.4 C45.6,22.9 45.4,23.5 45.2,24.1 L45.4,38.9 C45.5,39.3 45.5,39.8 45.8,40.1 L46.5,40.5 C45.5,41.4 44,42.1 42.7,42.7 C42.7,42.6 42.6,42.3 42.9,42.2 L43.2,41.1 L43,33.4 C42.5,32.8 41.9,33.6 41.4,33.8 C40.5,34.5 39.3,34.9 38.6,35.7 C38.5,38.2 38.3,40.9 38.8,43.3 C39,43.8 39.4,44 39.9,44.2 L40.3,44.2 C38.9,45.3 37.3,46.2 35.6,46.9 C35.9,46.2 36.2,45.4 36.3,44.5 L36,30.1 C36.1,29.4 35.2,29.1 34.9,28.8 C36.2,27.8 37.6,27 39.1,26.4 C38,28.2 38.8,31 38.7,33.3 C38.7,33.5 38.9,33.6 38.9,33.6 C40.4,33.2 41.6,32.1 43,31.4 L43.2,30.9 L43.1,25.8 C43,25.4 42.6,25 42.2,24.9 L41.8,24.9 C41.7,24.4 42.3,24.4 42.6,24.1 C43.6,23.6 44.5,22.6 45.8,22.4" id="XMLID_672_" fill="#FFFFFF"/>
              <path d="M32.3,28.1 C32.7,30.3 32.4,32.9 33.5,34.8 C31.8,33.9 32.1,31.8 30.5,30.7 C30,30.5 29.7,31 29.5,31.3 C29.3,37.2 29.8,42.7 29.9,48.5 C30.1,48.9 30.4,49.1 30.8,49.2 L31.4,49.2 C29.8,50.5 27.9,51.2 26.1,52.2 C27.8,50.4 26.9,47.6 27.1,45.3 L26.9,33.4 C26.8,33.1 26.9,32.7 26.6,32.4 C25.1,32.9 25.1,34.6 24.5,35.8 C24.1,37.5 24,39.4 22.6,40.6 L22.4,40.6 C23.7,38.2 22.6,35.1 23.4,32.5 C26.3,30.9 29.2,29 32.2,27.5 L32.3,28.1 Z" id="XMLID_671_" fill="#FFFFFF"/>
              <path d="M83.7,34 C85.9,39.1 85.6,45.7 83.3,50.7 C82.5,52 81.5,53.5 79.9,53.7 C78.7,53.9 77.6,53.4 76.7,52.6 C74.3,48.9 74,43.9 74.7,39.5 C75.4,36.5 76.5,32.4 80.2,31.8 C81.8,31.7 83,32.7 83.7,34 M80,33.8 C78.6,34.3 78.2,35.7 78,37 C77.3,41.2 76.9,46.2 78.2,50.2 C78.6,50.9 79,52.2 80.1,52.1 C81.5,51.7 81.6,50.2 82,49.1 C82.9,44.8 83,39.8 82.1,35.4 C81.5,34.5 81,33.7 80,33.8" id="Shape" fill="#FFFFFF"/>
              <path d="M73.7,35.6 C73.5,36.3 73.1,37.1 73,37.9 L73,46.6 C73.1,49.6 73,52.8 73.3,55.7 C73.5,56.1 73.8,56.3 74.2,56.5 L74.1,56.7 C72.8,57.6 71.4,58.4 70,59 C70.7,57.9 70.9,56.3 70.8,54.7 L70.6,42.9 L70.4,38.9 C70.2,38.5 69.8,38.2 69.5,38 C70.6,37.1 71.9,36.6 73,35.8 C73.3,35.8 73.5,35.6 73.7,35.6" id="XMLID_668_" fill="#FFFFFF"/>
              <path d="M68.1,39.3 C68.5,41.4 68.3,43.8 68.5,45.9 C67.5,44.7 68,42.8 66.4,41.9 C65.8,41.7 65.5,42.2 65.2,42.6 L65,43.2 L65.1,54.2 L65.3,60 C65.5,60.5 66,60.9 66.4,61.1 C65.3,62.1 63.9,62.9 62.5,63.3 L62.9,61.5 L62.7,52 L62.5,44.2 C62.2,43.8 61.8,43.8 61.5,44.1 C60.1,45.5 60.4,47.7 59.5,49.2 L59.4,49.1 C59.6,47.5 59.3,45.5 59.3,43.9 L59.5,43.4 C62.2,42 64.8,40.3 67.5,38.8 C67.8,39 68.1,39.1 68.1,39.3" id="XMLID_667_" fill="#FFFFFF"/>
              <path d="M51.8,48.5 C51.1,49.7 51.1,51.1 50.8,52.4 L50.1,56 L48.3,66 C47.4,68.5 47.8,71.8 45.9,73.8 C46,72.1 45.4,70.6 45,69 L42.3,58.6 C42,57.3 41.6,55.6 40.1,55.2 L40.1,55 C41.6,54.1 43,52.9 44.7,52.5 C44,53.3 44.2,54.5 44.3,55.5 C44.8,58.4 45.7,61.2 46.3,64 C46.4,64.1 46.5,64.2 46.6,64.1 C47.3,61.6 47.5,59 48,56.4 C48.2,54.7 48.9,52.8 48.1,51.2 C47.9,50.9 47.7,50.8 47.4,50.8 C48.6,49.8 50,49.1 51.4,48.4 L51.8,48.5 Z" id="XMLID_666_" fill="#FFFFFF"/>
              <path d="M92.7,56.2 C93.2,57.1 93.2,58.3 92.7,59.2 C91.4,63.4 89.6,67.4 88.1,71.5 C88,73.6 88,76 88.2,78.1 C88.3,78.5 88.8,78.8 89,79.1 C87.6,80.2 86.1,80.9 84.6,81.8 C84.9,81 85.4,80.1 85.5,79.2 C85.5,76.8 85.5,74.2 85.2,71.8 C84,69.2 82.7,66.6 81.3,64 L80.3,63.3 C81.7,62.4 83,61.4 84.6,60.8 C84.4,61.8 83.8,63.2 84.5,64.3 C85.3,65.8 85.8,67.3 86.7,68.8 C87.2,69 87.2,68.3 87.4,68.1 C88.4,64.9 90.1,62.1 90.5,58.7 C90.5,57.5 90,56.4 88.9,56 C88.7,55.8 89,55.5 89,55.4 C89.8,54.8 91,54.9 91.8,55.3 C92.3,55.4 92.4,55.9 92.7,56.2" id="XMLID_665_" fill="#FFFFFF"/>
              <path d="M37.3,61.1 C37.4,65.8 37.4,70.4 37.6,75.1 C37.8,75.5 37.7,75.9 38.2,76.1 C38.7,76.3 39.1,75.9 39.5,75.7 C41.3,73.9 40.4,70.8 42.4,69.1 L42.8,69.1 C42.2,70.6 42.1,72.4 42.2,74.1 C42.1,74.6 42.1,75.2 42,75.7 C39.8,77.2 37.4,78.4 35.2,79.8 L35,79.7 L35.2,77.4 L35,65.5 L34.9,60.5 C34.6,59.7 33.8,59.3 33.1,59.3 C34.8,58.3 36.3,57.1 38.1,56.4 C37.2,57.6 37.5,59.5 37.3,61.1" id="XMLID_664_" fill="#FFFFFF"/>
              <path d="M78,64.6 C78,65.4 77.6,66.2 77.6,67 L77.6,73.9 L77.9,84.1 C78,84.6 78.5,84.9 78.8,85.2 C77.7,86.1 76.5,86.7 75.2,87.2 C75.6,86.1 75.4,85.1 75.4,83.8 L75.2,74.5 C75.1,74.3 75,74.5 74.9,74.6 C74,77.1 73.3,79.6 72.4,82.1 C71.9,81.9 71.6,81.3 71.4,80.9 C70.6,79.7 70.1,78.5 69.3,77.3 C69.1,77.2 68.9,77.4 68.9,77.6 C69.1,81.7 68.8,85.4 69.2,89.5 C69.5,89.9 69.9,90.1 70.2,90.4 C69.1,91.3 67.7,92 66.4,92.6 C66.7,91.8 67.1,90.8 67.1,89.7 L66.9,81 L66.7,73.7 C66.5,73 65.7,72.6 65.1,72.4 C66,71.7 67,70.7 68.2,70.7 C69.4,72.7 70.5,74.7 71.7,76.7 C72.1,76.9 72.1,76.3 72.3,76.1 C73.2,72.8 74.1,69.7 75.1,66.4 C75.9,65.6 77,65.1 78,64.6" id="XMLID_663_" fill="#FFFFFF"/>
              <path d="M21.1,66.9 C19.7,68.8 20,71.9 20.6,74 C19.7,74 19.3,73.1 18.7,72.7 C18.4,72.6 17.8,72.9 17.6,72.5 C18,72 18.2,71.4 18.2,70.8 C18.1,70 17.8,69.1 17,68.7 C15.8,68.1 14.3,68.2 13.2,69 C12.3,69.9 11.7,70.9 12.2,72.1 C13.8,75.8 18.4,76.8 20.3,80.5 C21.4,83.2 21.1,86.7 19.3,89 C17.7,90.8 15.4,91.9 12.8,91.4 C11.2,91.1 9.7,89.7 9.2,88.1 C8.7,86.5 9.4,85 10.5,84.1 C11.4,83.5 12.7,83.5 13.5,84.1 C13.9,84.4 14.1,84.8 14.2,85.3 C13.9,85.7 13.5,85.2 13.2,85.5 C12.7,85.8 12.2,86.1 12.1,86.6 C12.2,87.3 12,87.8 12.4,88.2 C13.1,89.2 14.1,89.4 15.2,89.2 C16.7,88.8 18.2,87.3 18.4,85.6 C19.1,79.5 11.1,78.5 9.8,73.3 C9.2,70.9 10.1,68.5 12,67.2 C13.9,65.9 16.5,66 18.6,66.9 C19.3,66.3 20.2,65.9 21,66.1 L21.1,66.9 Z" id="XMLID_662_" fill="#FFFFFF"/>
              <path d="M29.2,60.3 C28.6,60.8 28.7,61.7 28.7,62.3 C30.3,67.8 31.6,73.4 33.2,78.9 C33.3,79.5 34.1,79.9 34,80.5 C32.7,81.4 31.3,82.2 29.8,82.7 C30.9,81 30.2,79.3 29.7,77.5 C29.4,76.5 29.1,76.7 28.6,76.9 C27.9,77.1 27.1,77.7 26.7,77.9 C26.1,78.1 26,79 25.9,79.5 C25.7,80.6 24.5,83.5 26.3,84.2 C26.6,84.1 26.7,84.4 26.9,84.3 C25.5,85.7 23.4,86.5 21.8,87.4 C22,86.6 22.5,86 22.7,85.3 C24.2,78 25.3,70.6 26.7,63.3 C27.3,62.3 27.7,60.7 29.2,60.3 L29.2,60.3 Z M28.1,68.3 L27.7,68.4 C27.3,70.7 26.7,73.6 26.7,75.9 C27.6,75.5 28.5,75.2 29.1,74.4 L28.1,68.3 Z" id="Shape" fill="#FFFFFF"/>
              <path d="M64.3,78.4 C65.4,80.7 64.7,83.6 63.3,85.6 C62.7,86.7 60.9,87 61.2,88.5 C62,91.6 62.8,95 65.7,96.9 C66.4,97.3 67.3,97.3 68.1,97.2 C68,97.9 67.1,98.3 66.5,98.5 C62.9,98.7 61.1,94.8 59.7,92.3 C59.2,91 58.7,89.8 58.4,88.5 L58.1,88.2 L57.8,88.5 C57.7,91.1 58,93.8 57.9,96.4 C58.1,96.9 58.8,96.8 58.8,97.3 C57.7,98.2 56.5,98.8 55.1,99.3 C55.7,97 55,94.5 55.3,92.1 C55.2,88.1 55.2,83.9 55,79.8 C54.8,79.4 54.4,79.1 54.1,79 L53.4,79 C54.1,78.1 55.2,77.6 56.2,77 C58,76 60.6,75.4 62.4,76.5 C63.2,77 63.9,77.7 64.3,78.4 M59.2,77.7 C58.6,77.8 58,78.1 57.8,78.6 C57.5,81.1 57.7,83.9 57.9,86.5 C58,86.9 58.4,86.9 58.7,87 C59.7,86.9 60.5,86.2 61,85.5 C61.8,83.4 62.4,80.3 61.1,78.3 C60.5,77.9 59.9,77.8 59.2,77.7" id="Shape" fill="#FFFFFF"/>
              <path d="M50.5,89.8 L52.6,99.2 C52.7,99.7 53.2,100 53.5,100.2 C52.4,101.1 51.2,101.7 50.1,102.1 C50.7,100.4 49.8,98.6 49.4,96.9 C49.2,96.4 48.6,96.7 48.3,96.8 C47,97.4 45.6,98 44.5,99 C44.3,100.8 43.7,102.7 43.8,104.5 C44.1,105 44.5,105.2 44.9,105.1 L44.8,105.4 C43.2,106.5 41.7,107.4 40,108.1 C40.1,107.5 40.7,107.1 41,106.5 C42.2,103.4 42.6,99.9 43.2,96.5 C44,91.8 45.1,87.2 45.8,82.4 C46.4,81.1 46.8,79.6 48,78.5 C48.5,82.5 49.8,86 50.5,89.8 M46.9,87.1 L46.5,88.1 C46.1,90.8 45.4,93.5 45.2,96.2 C46.4,96.1 47.5,95.2 48.6,94.6 C48.7,94.2 48.7,94 48.6,93.6 C48,91.5 47.7,89.1 46.9,87.1" id="Shape" fill="#FFFFFF"/>
              <path d="M59.7,126.1 C59.7,123.9 61.5,122.2 63.6,122.2 C65.7,122.2 67.5,123.8 67.5,126.1 C67.5,128.3 65.7,130 63.6,130 C61.5,130 59.7,128.3 59.7,126.1 L59.7,126.1 Z M63.6,129.3 C65.4,129.3 66.7,127.9 66.7,126.1 C66.7,124.3 65.3,122.9 63.6,122.9 C61.8,122.9 60.4,124.3 60.4,126.1 C60.5,128 61.9,129.3 63.6,129.3 L63.6,129.3 Z M62.8,128.3 L62.1,128.3 L62.1,123.8 L63.8,123.8 C64.9,123.8 65.4,124.2 65.4,125.1 C65.4,125.9 64.9,126.2 64.2,126.3 L65.5,128.3 L64.7,128.3 L63.5,126.4 L62.7,126.4 L62.8,128.3 Z M63.6,125.8 C64.2,125.8 64.7,125.8 64.7,125.1 C64.7,124.5 64.2,124.4 63.7,124.4 L62.8,124.4 L62.8,125.8 L63.6,125.8 Z" id="Shape" fill="#C9002C"/>
              <path d="M58.3,54.4 C59.1,57.3 59.6,60.3 60.4,63.2 C60.5,63.7 61.2,63.8 61.2,64.2 C60,65.1 58.8,65.9 57.4,66.4 C57.6,65.5 57.8,64.4 57.7,63.3 L57.2,61.3 C57,60.9 56.6,61.1 56.3,61.2 C55.4,62 54.1,62.1 53.6,63.2 C53.5,64.7 52.8,65.9 53.1,67.5 C53.4,68.1 54.1,68 54.7,68.1 C52.9,69.1 51.4,70.3 49.6,71 L49.7,71 C51.7,66.4 51.9,61 53.1,56.1 C54.2,52.1 54.1,47.7 56.1,44.1 L56.4,43.9 C56.2,47.7 57.7,50.9 58.3,54.4 L58.3,54.4 Z M55.8,52.6 L55.4,52.7 C55,55 54.4,57.9 54.4,60.2 C55.3,59.8 56.2,59.5 56.8,58.7 L55.8,52.6 Z" id="Shape" fill="#FFFFFF"/>
            </g>
          </g>
          <rect id="Rectangle-6" x="0" y="0" width="640" height="144"/>
          <text id="Doing-The-Most-Good®" fill="#000000" font-family="Helvetica" font-size="48" font-weight="normal" style="white-space: pre;">
                        <tspan x="134.144306" y="129.6745">Doing The Most Good</tspan>
                        <tspan x="610.689228" y="129.6745" font-size="38">®</tspan>
                    </text>
          <text id="Volunteers" fill="#000000" font-family="Helvetica" font-size="60" font-weight="normal" style="white-space: pre;">
                        <tspan x="209.131919" y="58.6745">Volunteers</tspan>
                    </text>
        </g>
      </g>
    </g>
  </g>
</svg>
