<?xml version="1.0" encoding="utf-8"?>
<!-- Generator: Adobe Illustrator 20.1.0, SVG Export Plug-In . SVG Version: 6.00 Build 0)  -->
<svg version="1.1" id="Layer_1" xmlns="http://www.w3.org/2000/svg" xmlns:xlink="http://www.w3.org/1999/xlink" x="0px" y="0px"
	 viewBox="0 0 648 144" style="enable-background:new 0 0 648 144;" xml:space="preserve">
<style type="text/css">
	.st0{clip-path:url(#XMLID_2_);}
	.st1{clip-path:url(#XMLID_3_);fill:#C9002C;}
	.st2{clip-path:url(#XMLID_3_);fill:#FFFFFF;}
	.st3{font-family:'TrajanPro-Bold';}
	.st4{font-size:34.3123px;}
</style>
<g>
	<g>
		<g id="XMLID_647_">
			<g>
				<defs>
					<rect id="XMLID_648_" x="20.3" y="7" width="109.3" height="130"/>
				</defs>
				<clipPath id="XMLID_2_">
					<use xlink:href="#XMLID_648_"  style="overflow:visible;"/>
				</clipPath>
				<g class="st0">
					<defs>
						<rect id="XMLID_649_" x="20.3" y="7" width="109.3" height="130"/>
					</defs>
					<clipPath id="XMLID_3_">
						<use xlink:href="#XMLID_649_"  style="overflow:visible;"/>
					</clipPath>
					<path id="XMLID_677_" class="st1" d="M75,132.7c3.4-3.4,11-9.2,18.3-11.4c8.4-2.5,30.1-6.4,35.1-28.6c4-17.4-3.5-37-4.4-45.8
						c-0.8-7.8,1.6-25.4,2-28c0.5-3.6-2.9-4.9-5.1-4.1c-3.7,1.4-11.7,4-20.9,4.1C90.2,19,78.1,11.8,75,7c-3.1,4.8-15.2,12-25.1,11.8
						c-9.1-0.2-17.1-2.7-20.9-4.1c-2.2-0.8-5.6,0.5-5.1,4.1c0.4,2.7,2.7,20.3,2,28c-0.9,8.8-8.4,28.4-4.4,45.8
						c5.1,22.2,26.8,26.1,35.1,28.6C63.9,123.5,71.6,129.3,75,132.7"/>
					<path class="st2" d="M75,129l-0.5-0.5c-4.3-4.5-13.2-8.9-19-10.4c-16.9-4.4-26.9-12.2-30.6-23.6c-3.9-11.9-1-25.1,1.4-35.7
						c0.9-3.9,1.7-7.6,2.1-10.9c1-8-1-23.8-1.3-25.9c-0.4-2.2-0.5-3.6,0.3-4.2c0.7-0.6,1.8-0.4,3.5,0.2c3.2,1.1,12.4,3.4,20.8,3.2
						c7.8-0.2,17.2-5.1,23-9.8l0.4-0.3l0.4,0.3c5.8,4.7,15.1,9.5,23,9.8c8.3,0.3,17.6-2,20.8-3.2c1.7-0.6,2.8-0.8,3.5-0.2
						c0.8,0.7,0.7,2,0.3,4.2c-0.4,2.1-2.3,17.8-1.3,25.9c0.4,3.2,1.2,6.9,2.1,10.9c2.4,10.6,5.3,23.7,1.4,35.7
						c-3.7,11.4-13.7,19.2-30.6,23.6c-5.8,1.5-14.7,5.9-19,10.4L75,129z M28.4,18.8c-0.2,0-0.2,0-0.3,0.1c-0.2,0.1-0.3,0.8,0.1,3
						c0.4,2.1,2.3,18.1,1.3,26.2c-0.4,3.3-1.2,7-2.1,11c-2.3,10.4-5.2,23.4-1.4,35c3.6,11,13.3,18.4,29.7,22.8
						c5.8,1.5,14.5,5.8,19.1,10.3c4.6-4.5,13.4-8.8,19.1-10.3c16.4-4.3,26.2-11.8,29.7-22.8c3.8-11.6,0.9-24.6-1.4-35
						c-0.9-4-1.7-7.7-2.1-11c-1-8.2,1-24.1,1.4-26.2c0.4-2.2,0.3-2.9,0.1-3c-0.1-0.1-0.6-0.2-2.3,0.4c-3.3,1.2-12.7,3.5-21.2,3.3
						c-5.3-0.2-14.6-2.8-23.3-9.7c-8.7,6.9-18,9.6-23.3,9.7c-8.5,0.3-18-2.1-21.2-3.3C29.3,18.9,28.7,18.8,28.4,18.8"/>
					<path id="XMLID_674_" class="st2" d="M77.9,23.7c0.1,1.2,0.4,2.4,0.3,3.7c-0.4-0.9-1.2-1.9-2.3-1.9c-1.3,0-2.3,0.9-2.9,2
						c-0.3,1.8-0.2,3.5,0.1,5.3c0.8-0.2,1.4-1,2.2-1.4c1.8-1.2,4.9-0.3,5.7-2.8l0.1-0.2c0.3,0.7-0.1,1.6-0.4,2.3
						c-1.8,3.1-6.2,0.6-7.7,3.9c0.1,2.2-0.3,4.8,0.3,6.8c0.4,0.4,0.9,0.3,1.4,0.1c2.9-0.9,4.6-3.7,5.3-6.4l0.2,0
						c-0.2,1.7-0.2,3.5-0.5,5c-3.3,2.1-6.6,4-9.9,5.6c1.6-2.9,0.5-6.9,0.8-10.5c-0.2-2-0.2-3.9-0.2-5.9c-0.1-0.4-0.5-0.8-0.8-1
						c-0.4-0.2-0.8-0.2-1.1-0.3c0.3-0.4,0.8-0.8,1.3-1c2.5-1.6,5.1-2.8,7.6-4.3C77.9,22.6,77.6,23.3,77.9,23.7"/>
					<path id="XMLID_673_" class="st2" d="M114.6,29.3c0.8,2.3,0,4.9-0.2,7.4c-0.7,5.3-0.9,11.2,0.7,16.2c0.1,0.4-0.4,0.4-0.6,0.3
						c-1.3-0.7-1.8-2.2-2.3-3.4c-1.3-2.4-2.1-5.1-3.6-7.5l-0.2,0.3l0.2,10.9c0.1,0.4,0.6,0.6,0.8,0.8c-0.9,0.9-2.1,1.4-3.1,1.9
						c0-0.5,0.4-1,0.4-1.6c0-5.7,0-11.7-0.3-17.2c-0.3-0.9-1.2-0.9-1.9-1.2c1-0.8,2-1.4,3.1-1.9c0.5-0.2,0.8,0.3,0.9,0.6
						c1.1,2.4,2,4.9,3.3,7.3c0.1,0.1,0.2-0.1,0.3-0.2c0-3.7,0.7-7.4,0.4-11.1c-0.2-0.8-1.6-1-1.1-1.9c0.6-0.5,1.1-1,1.9-0.8
						C113.9,28.3,114.2,28.9,114.6,29.3"/>
					<path id="XMLID_672_" class="st2" d="M65.8,29.4c-0.2,0.5-0.4,1.1-0.6,1.7l0.2,14.8c0.1,0.4,0.1,0.9,0.4,1.2l0.7,0.4
						c-1,0.9-2.5,1.6-3.8,2.2c0-0.1-0.1-0.4,0.2-0.5l0.3-1.1L63,40.4c-0.5-0.6-1.1,0.2-1.6,0.4c-0.9,0.7-2.1,1.1-2.8,1.9
						c-0.1,2.5-0.3,5.2,0.2,7.6c0.2,0.5,0.6,0.7,1.1,0.9l0.4,0c-1.4,1.1-3,2-4.7,2.7c0.3-0.7,0.6-1.5,0.7-2.4l-0.3-14.4
						c0.1-0.7-0.8-1-1.1-1.3c1.3-1,2.7-1.8,4.2-2.4c-1.1,1.8-0.3,4.6-0.4,6.9c0,0.2,0.2,0.3,0.2,0.3c1.5-0.4,2.7-1.5,4.1-2.2
						l0.2-0.5l-0.1-5.1c-0.1-0.4-0.5-0.8-0.9-0.9l-0.4,0c-0.1-0.5,0.5-0.5,0.8-0.8C63.6,30.6,64.5,29.6,65.8,29.4"/>
					<path id="XMLID_671_" class="st2" d="M52.3,35.1c0.4,2.2,0.1,4.8,1.2,6.7c-1.7-0.9-1.4-3-3-4.1c-0.5-0.2-0.8,0.3-1,0.6
						c-0.2,5.9,0.3,11.4,0.4,17.2c0.2,0.4,0.5,0.6,0.9,0.7l0.6,0c-1.6,1.3-3.5,2-5.3,3c1.7-1.8,0.8-4.6,1-6.9l-0.2-11.9
						c-0.1-0.3,0-0.7-0.3-1c-1.5,0.5-1.5,2.2-2.1,3.4c-0.4,1.7-0.5,3.6-1.9,4.8l-0.2,0c1.3-2.4,0.2-5.5,1-8.1c2.9-1.6,5.8-3.5,8.8-5
						L52.3,35.1z"/>
					<path class="st2" d="M103.7,41c2.2,5.1,1.9,11.7-0.4,16.7c-0.8,1.3-1.8,2.8-3.4,3c-1.2,0.2-2.3-0.3-3.2-1.1
						c-2.4-3.7-2.7-8.7-2-13.1c0.7-3,1.8-7.1,5.5-7.7C101.8,38.7,103,39.7,103.7,41 M100,40.8c-1.4,0.5-1.8,1.9-2,3.2
						c-0.7,4.2-1.1,9.2,0.2,13.2c0.4,0.7,0.8,2,1.9,1.9c1.4-0.4,1.5-1.9,1.9-3c0.9-4.3,1-9.3,0.1-13.7C101.5,41.5,101,40.7,100,40.8
						"/>
					<path id="XMLID_668_" class="st2" d="M93.7,42.6c-0.2,0.7-0.6,1.5-0.7,2.3l0,8.7c0.1,3,0,6.2,0.3,9.1c0.2,0.4,0.5,0.6,0.9,0.8
						l-0.1,0.2c-1.3,0.9-2.7,1.7-4.1,2.3c0.7-1.1,0.9-2.7,0.8-4.3l-0.2-11.8l-0.2-4c-0.2-0.4-0.6-0.7-0.9-0.9
						c1.1-0.9,2.4-1.4,3.5-2.2C93.3,42.8,93.5,42.6,93.7,42.6"/>
					<path id="XMLID_667_" class="st2" d="M88.1,46.3c0.4,2.1,0.2,4.5,0.4,6.6c-1-1.2-0.5-3.1-2.1-4c-0.6-0.2-0.9,0.3-1.2,0.7
						L85,50.2l0.1,11l0.2,5.8c0.2,0.5,0.7,0.9,1.1,1.1c-1.1,1-2.5,1.8-3.9,2.2l0.4-1.8L82.7,59l-0.2-7.8c-0.3-0.4-0.7-0.4-1-0.1
						c-1.4,1.4-1.1,3.6-2,5.1l-0.1-0.1c0.2-1.6-0.1-3.6-0.1-5.2l0.2-0.5c2.7-1.4,5.3-3.1,8-4.6C87.8,46,88.1,46.1,88.1,46.3"/>
					<path id="XMLID_666_" class="st2" d="M71.8,55.5c-0.7,1.2-0.7,2.6-1,3.9l-0.7,3.6L68.3,73c-0.9,2.5-0.5,5.8-2.4,7.8
						c0.1-1.7-0.5-3.2-0.9-4.8l-2.7-10.4c-0.3-1.3-0.7-3-2.2-3.4l0-0.2c1.5-0.9,2.9-2.1,4.6-2.5c-0.7,0.8-0.5,2-0.4,3
						c0.5,2.9,1.4,5.7,2,8.5c0.1,0.1,0.2,0.2,0.3,0.1c0.7-2.5,0.9-5.1,1.4-7.7c0.2-1.7,0.9-3.6,0.1-5.2c-0.2-0.3-0.4-0.4-0.7-0.4
						c1.2-1,2.6-1.7,4-2.4L71.8,55.5z"/>
					<path id="XMLID_665_" class="st2" d="M112.7,63.2c0.5,0.9,0.5,2.1,0,3c-1.3,4.2-3.1,8.2-4.6,12.3c-0.1,2.1-0.1,4.5,0.1,6.6
						c0.1,0.4,0.6,0.7,0.8,1c-1.4,1.1-2.9,1.8-4.4,2.7c0.3-0.8,0.8-1.7,0.9-2.6c0-2.4,0-5-0.3-7.4c-1.2-2.6-2.5-5.2-3.9-7.8l-1-0.7
						c1.4-0.9,2.7-1.9,4.3-2.5c-0.2,1-0.8,2.4-0.1,3.5c0.8,1.5,1.3,3,2.2,4.5c0.5,0.2,0.5-0.5,0.7-0.7c1-3.2,2.7-6,3.1-9.4
						c0-1.2-0.5-2.3-1.6-2.7c-0.2-0.2,0.1-0.5,0.1-0.6c0.8-0.6,2-0.5,2.8-0.1C112.3,62.4,112.4,62.9,112.7,63.2"/>
					<path id="XMLID_664_" class="st2" d="M57.3,68.1c0.1,4.7,0.1,9.3,0.3,14c0.2,0.4,0.1,0.8,0.6,1s0.9-0.2,1.3-0.4
						c1.8-1.8,0.9-4.9,2.9-6.6l0.4,0c-0.6,1.5-0.7,3.3-0.6,5c-0.1,0.5-0.1,1.1-0.2,1.6c-2.2,1.5-4.6,2.7-6.8,4.1L55,86.7l0.2-2.3
						L55,72.5l-0.1-5c-0.3-0.8-1.1-1.2-1.8-1.2c1.7-1,3.2-2.2,5-2.9C57.2,64.6,57.5,66.5,57.3,68.1"/>
					<path id="XMLID_663_" class="st2" d="M98,71.6c0,0.8-0.4,1.6-0.4,2.4l0,6.9l0.3,10.2c0.1,0.5,0.6,0.8,0.9,1.1
						c-1.1,0.9-2.3,1.5-3.6,2c0.4-1.1,0.2-2.1,0.2-3.4l-0.2-9.3c-0.1-0.2-0.2,0-0.3,0.1c-0.9,2.5-1.6,5-2.5,7.5
						c-0.5-0.2-0.8-0.8-1-1.2c-0.8-1.2-1.3-2.4-2.1-3.6c-0.2-0.1-0.4,0.1-0.4,0.3c0.2,4.1-0.1,7.8,0.3,11.9c0.3,0.4,0.7,0.6,1,0.9
						c-1.1,0.9-2.5,1.6-3.8,2.2c0.3-0.8,0.7-1.8,0.7-2.9L86.9,88l-0.2-7.3c-0.2-0.7-1-1.1-1.6-1.3c0.9-0.7,1.9-1.7,3.1-1.7
						c1.2,2,2.3,4,3.5,6c0.4,0.2,0.4-0.4,0.6-0.6c0.9-3.3,1.8-6.4,2.8-9.7C95.9,72.6,97,72.1,98,71.6"/>
					<path id="XMLID_662_" class="st2" d="M41.1,73.9c-1.4,1.9-1.1,5-0.5,7.1c-0.9,0-1.3-0.9-1.9-1.3c-0.3-0.1-0.9,0.2-1.1-0.2
						c0.4-0.5,0.6-1.1,0.6-1.7c-0.1-0.8-0.4-1.7-1.2-2.1c-1.2-0.6-2.7-0.5-3.8,0.3c-0.9,0.9-1.5,1.9-1,3.1c1.6,3.7,6.2,4.7,8.1,8.4
						c1.1,2.7,0.8,6.2-1,8.5c-1.6,1.8-3.9,2.9-6.5,2.4c-1.6-0.3-3.1-1.7-3.6-3.3c-0.5-1.6,0.2-3.1,1.3-4c0.9-0.6,2.2-0.6,3,0
						c0.4,0.3,0.6,0.7,0.7,1.2c-0.3,0.4-0.7-0.1-1,0.2c-0.5,0.3-1,0.6-1.1,1.1c0.1,0.7-0.1,1.2,0.3,1.6c0.7,1,1.7,1.2,2.8,1
						c1.5-0.4,3-1.9,3.2-3.6c0.7-6.1-7.3-7.1-8.6-12.3c-0.6-2.4,0.3-4.8,2.2-6.1c1.9-1.3,4.5-1.2,6.6-0.3c0.7-0.6,1.6-1,2.4-0.8
						L41.1,73.9z"/>
					<path class="st2" d="M49.2,67.3c-0.6,0.5-0.5,1.4-0.5,2c1.6,5.5,2.9,11.1,4.5,16.6c0.1,0.6,0.9,1,0.8,1.6
						c-1.3,0.9-2.7,1.7-4.2,2.2c1.1-1.7,0.4-3.4-0.1-5.2c-0.3-1-0.6-0.8-1.1-0.6c-0.7,0.2-1.5,0.8-1.9,1c-0.6,0.2-0.7,1.1-0.8,1.6
						c-0.2,1.1-1.4,4,0.4,4.7c0.3-0.1,0.4,0.2,0.6,0.1c-1.4,1.4-3.5,2.2-5.1,3.1c0.2-0.8,0.7-1.4,0.9-2.1c1.5-7.3,2.6-14.7,4-22
						C47.3,69.3,47.7,67.7,49.2,67.3 M48.1,75.3l-0.4,0.1c-0.4,2.3-1,5.2-1,7.5c0.9-0.4,1.8-0.7,2.4-1.5L48.1,75.3z"/>
					<path class="st2" d="M84.3,85.4c1.1,2.3,0.4,5.2-1,7.2c-0.6,1.1-2.4,1.4-2.1,2.9c0.8,3.1,1.6,6.5,4.5,8.4
						c0.7,0.4,1.6,0.4,2.4,0.3c-0.1,0.7-1,1.1-1.6,1.3c-3.6,0.2-5.4-3.7-6.8-6.2c-0.5-1.3-1-2.5-1.3-3.8l-0.3-0.3l-0.3,0.3
						c-0.1,2.6,0.2,5.3,0.1,7.9c0.2,0.5,0.9,0.4,0.9,0.9c-1.1,0.9-2.3,1.5-3.7,2c0.6-2.3-0.1-4.8,0.2-7.2c-0.1-4-0.1-8.2-0.3-12.3
						c-0.2-0.4-0.6-0.7-0.9-0.8l-0.7,0c0.7-0.9,1.8-1.4,2.8-2c1.8-1,4.4-1.6,6.2-0.5C83.2,84,83.9,84.7,84.3,85.4 M79.2,84.7
						c-0.6,0.1-1.2,0.4-1.4,0.9c-0.3,2.5-0.1,5.3,0.1,7.9c0.1,0.4,0.5,0.4,0.8,0.5c1-0.1,1.8-0.8,2.3-1.5c0.8-2.1,1.4-5.2,0.1-7.2
						C80.5,84.9,79.9,84.8,79.2,84.7"/>
					<path class="st2" d="M70.5,96.8l2.1,9.4c0.1,0.5,0.6,0.8,0.9,1c-1.1,0.9-2.3,1.5-3.4,1.9c0.6-1.7-0.3-3.5-0.7-5.2
						c-0.2-0.5-0.8-0.2-1.1-0.1c-1.3,0.6-2.7,1.2-3.8,2.2c-0.2,1.8-0.8,3.7-0.7,5.5c0.3,0.5,0.7,0.7,1.1,0.6l-0.1,0.3
						c-1.6,1.1-3.1,2-4.8,2.7c0.1-0.6,0.7-1,1-1.6c1.2-3.1,1.6-6.6,2.2-10c0.8-4.7,1.9-9.3,2.6-14.1c0.6-1.3,1-2.8,2.2-3.9
						C68.5,89.5,69.8,93,70.5,96.8 M66.9,94.1l-0.4,1c-0.4,2.7-1.1,5.4-1.3,8.1c1.2-0.1,2.3-1,3.4-1.6c0.1-0.4,0.1-0.6,0-1
						C68,98.5,67.7,96.1,66.9,94.1"/>
					<path class="st1" d="M79.7,133.1c0-2.2,1.8-3.9,3.9-3.9c2.1,0,3.9,1.6,3.9,3.9c0,2.2-1.8,3.9-3.9,3.9
						C81.5,137,79.7,135.3,79.7,133.1 M83.6,136.3c1.8,0,3.1-1.4,3.1-3.2c0-1.8-1.4-3.2-3.1-3.2c-1.8,0-3.2,1.4-3.2,3.2
						C80.5,135,81.9,136.3,83.6,136.3 M82.8,135.3h-0.7l0-4.5l1.7,0c1.1,0,1.6,0.4,1.6,1.3c0,0.8-0.5,1.1-1.2,1.2l1.3,2h-0.8
						l-1.2-1.9h-0.8L82.8,135.3z M83.6,132.8c0.6,0,1.1,0,1.1-0.7c0-0.6-0.5-0.7-1-0.7l-0.9,0l0,1.4L83.6,132.8z"/>
					<path class="st2" d="M78.3,61.4c0.8,2.9,1.3,5.9,2.1,8.8c0.1,0.5,0.8,0.6,0.8,1c-1.2,0.9-2.4,1.7-3.8,2.2
						c0.2-0.9,0.4-2,0.3-3.1l-0.5-2c-0.2-0.4-0.6-0.2-0.9-0.1c-0.9,0.8-2.2,0.9-2.7,2c-0.1,1.5-0.8,2.7-0.5,4.3
						c0.3,0.6,1,0.5,1.6,0.6c-1.8,1-3.3,2.2-5.1,2.9h0.1c2-4.6,2.2-10,3.4-14.9c1.1-4,1-8.4,3-12l0.3-0.2
						C76.2,54.7,77.7,57.9,78.3,61.4 M75.8,59.6l-0.4,0.1c-0.4,2.3-1,5.2-1,7.5c0.9-0.4,1.8-0.7,2.4-1.5L75.8,59.6z"/>
				</g>
			</g>
		</g>
	</g>
	<text transform="matrix(1 0 0 1 146.1154 74.6745)" class="st3 st4">Doing the Most Good® </text>
</g>
</svg>
