<?xml version="1.0" encoding="utf-8"?>
<!-- Generator: Adobe Illustrator 14.0.0, SVG Export Plug-In . SVG Version: 6.00 Build 43363)  -->
<!DOCTYPE svg PUBLIC "-//W3C//DTD SVG 1.1//EN" "http://www.w3.org/Graphics/SVG/1.1/DTD/svg11.dtd">
<svg version="1.1" id="Layer_1" xmlns="http://www.w3.org/2000/svg" xmlns:xlink="http://www.w3.org/1999/xlink" x="0px" y="0px"
	 width="212px" height="250px" viewBox="0 0 212 250" enable-background="new 0 0 212 250" xml:space="preserve">
<g>
	<path fill="#EF3E42" d="M105.899,237.08c6.251-6.24,20.365-17.04,33.875-21.12c15.525-4.559,55.651-11.762,64.928-52.8
		c7.461-32.16-6.451-68.401-8.064-84.722c-1.411-14.158,2.822-46.799,3.629-51.599c0.807-6.719-5.445-9.12-9.479-7.679
		c-6.854,2.639-21.574,7.438-38.511,7.679C134.13,27.08,111.746,13.88,105.899,5c-5.646,8.88-28.028,22.08-46.176,21.839
		c-16.938-0.24-31.657-5.04-38.513-7.679c-4.233-1.441-10.485,0.959-9.476,7.679c0.604,4.8,5.04,37.441,3.629,51.599
		C13.75,94.759-0.163,131,7.297,163.16c9.276,41.038,49.402,48.241,64.727,52.8C85.534,220.04,99.649,230.84,105.899,237.08"/>
	<path fill="none" stroke="#FFFFFF" stroke-width="2.4198" stroke-linecap="round" d="M105.899,228.679
		c7.865-8.16,24.599-16.799,35.69-19.679c30.648-8.16,48.998-21.84,55.652-42.722c9.678-29.76-3.629-63.358-6.454-85.439
		c-1.813-15.12,1.815-44.639,2.622-48.24c1.209-7.201,0.402-8.161-5.646-6c-6.047,2.16-23.188,6.481-38.713,6
		C134.13,32.12,116.587,23,105.899,14.358C95.212,23,77.871,32.12,62.95,32.599c-15.526,0.481-32.867-3.84-38.917-6
		c-5.847-2.161-6.856-1.201-5.445,6c0.605,3.602,4.437,33.12,2.42,48.24c-2.622,22.081-16.131,55.679-6.453,85.439
		C21.413,187.16,39.56,200.84,70.411,209C81.501,211.88,98.036,220.519,105.899,228.679z"/>
	<path fill="#FFFFFF" d="M111.344,35.719c0.2,2.161,0.604,4.321,0.402,6.96c-0.604-1.679-2.218-3.599-4.233-3.599
		c-2.42,0-4.436,1.679-5.445,3.599c-0.403,3.361-0.403,6.481,0.202,9.839c1.411-0.479,2.622-1.919,4.034-2.639
		c3.427-2.161,9.071-0.481,10.485-5.281l0.199-0.241c0.604,1.2-0.199,2.882-0.604,4.321c-3.426,5.759-11.695,0.96-14.316,7.201
		c0.202,4.08-0.604,8.639,0.606,12.479c0.604,0.722,1.612,0.481,2.418,0.241c5.445-1.679,8.469-6.96,9.88-11.76h0.203
		c-0.203,2.88-0.203,6.241-0.807,9.121c-6.05,3.839-12.099,7.438-18.148,10.559c2.822-5.519,0.807-12.96,1.411-19.438
		c-0.404-3.839-0.404-7.2-0.404-11.04c0-0.722-0.807-1.441-1.411-1.92c-0.605-0.24-1.412-0.24-2.017-0.481
		c0.403-0.719,1.411-1.438,2.42-1.92c4.637-2.88,9.476-5.04,14.114-7.679C111.344,33.799,110.939,35.241,111.344,35.719"/>
	<path fill="#FFFFFF" d="M179.297,46.281c1.411,4.318,0,9.118-0.405,13.438c-1.208,10.08-1.613,20.88,1.411,30
		c0.203,0.719-0.807,0.719-1.208,0.481c-2.219-1.201-3.228-3.842-4.233-6.241c-2.421-4.321-3.832-9.361-6.656-13.679l-0.2,0.479
		l0.2,20.161c0.202,0.719,1.009,1.2,1.613,1.438c-1.613,1.682-3.832,2.642-5.847,3.602c0-0.96,0.604-1.92,0.604-3.121
		c0-10.559,0-21.361-0.401-31.679c-0.405-1.441-2.218-1.682-3.43-2.161c1.613-1.441,3.629-2.642,5.647-3.602
		c0.807-0.238,1.411,0.481,1.613,1.201c2.218,4.321,3.831,9.12,6.249,13.441c0.202,0,0.202-0.241,0.404-0.241
		c0-6.96,1.209-13.679,0.604-20.639c-0.202-1.441-2.822-1.92-2.016-3.602c1.007-0.719,2.016-1.679,3.427-1.2
		C177.886,44.358,178.49,45.559,179.297,46.281"/>
	<path fill="#FFFFFF" d="M89.163,46.281c-0.403,0.96-0.807,2.158-1.008,3.118l0.201,27.361c0.202,0.719,0,1.441,0.807,2.161
		l1.21,0.719c-1.814,1.682-4.638,2.879-6.856,4.08c0-0.241-0.201-0.719,0.203-0.719l0.403-2.161l-0.202-14.16
		c-1.008-1.201-2.016,0.241-3.025,0.481c-1.612,1.438-3.832,2.158-5.242,3.599c0,4.559-0.404,9.599,0.403,13.92
		c0.202,0.96,1.007,1.441,1.814,1.679h0.807c-2.621,2.16-5.646,3.842-8.67,5.04c0.605-1.198,1.008-2.88,1.21-4.318l-0.604-26.642
		c0-1.198-1.412-1.679-2.017-2.398c2.218-1.92,5.042-3.361,7.663-4.321c-1.816,3.361-0.403,8.401-0.605,12.481
		c0,0.479,0.202,0.479,0.403,0.719c2.621-0.719,4.839-2.88,7.46-4.081l0.404-0.959l-0.201-9.361
		c-0.203-0.719-0.807-1.438-1.614-1.679h-0.604c0-0.959,1.008-0.719,1.411-1.441C84.929,48.679,86.744,46.759,89.163,46.281"/>
	<path fill="#FFFFFF" d="M64.16,56.839c0.806,4.321,0.201,8.88,2.218,12.479c-3.227-1.679-2.622-5.519-5.646-7.438
		c-0.807-0.481-1.411,0.479-1.814,0.959c-0.403,11.041,0.403,21.121,0.604,31.679c0.403,0.722,1.007,1.201,1.613,1.441h1.209
		c-3.023,2.16-6.654,3.599-9.879,5.519c3.226-3.358,1.612-8.639,1.814-12.719l-0.403-22.08c-0.203-0.479,0-1.201-0.604-1.679
		c-2.623,0.719-2.824,4.08-3.831,6.241c-0.606,3.118-0.807,6.719-3.428,8.879h-0.403c2.419-4.321,0.403-10.321,1.814-15.12
		c5.445-2.88,10.688-6.481,16.333-9.12L64.16,56.839"/>
	<path fill="#FFFFFF" d="M152.277,67.398c-2.622,0.722-3.429,3.602-3.831,5.762c-1.212,7.679-2.019,17.04,0.402,24.479
		c0.604,1.2,1.411,3.602,3.429,3.361c2.418-0.719,2.62-3.361,3.427-5.521c1.613-7.92,1.815-17.278,0.202-25.438
		C155.1,68.839,154.091,67.161,152.277,67.398 M159.131,67.639c4.033,9.602,3.43,21.602-0.807,30.96
		c-1.411,2.401-3.225,5.04-6.047,5.521c-2.221,0.479-4.438-0.481-6.049-1.919c-4.236-6.722-5.043-16.081-3.632-24.241
		c1.211-5.521,3.227-12.96,10.285-14.161C155.704,63.559,157.72,65.479,159.131,67.639z"/>
	<path fill="#FFFFFF" d="M140.581,70.519c-0.202,1.441-1.209,2.88-1.209,4.321V90.92c0,5.759,0,11.519,0.402,16.799
		c0.404,0.719,1.009,1.201,1.613,1.441l-0.202,0.479c-2.42,1.682-4.838,3.12-7.461,4.321c1.212-2.161,1.614-5.04,1.411-8.161
		l-0.401-21.599l-0.405-7.441c-0.199-0.719-1.006-1.201-1.613-1.679c2.019-1.682,4.438-2.401,6.656-4.08
		C139.774,71,140.179,70.519,140.581,70.519"/>
	<path fill="#FFFFFF" d="M130.299,77.479c0.807,4.08,0.401,8.401,0.807,12.241c-2.019-2.161-1.01-5.759-4.034-7.201
		c-1.009-0.479-1.613,0.481-2.218,1.201l-0.202,0.96v20.16l0.202,10.8c0.402,0.96,1.209,1.682,2.218,2.16
		c-2.218,1.92-4.638,3.361-7.258,4.081l0.604-3.361V101l-0.405-14.401c-0.401-0.719-1.208-0.719-1.813-0.241
		c-2.623,2.642-2.019,6.722-3.831,9.602h-0.203c0.402-3.121,0-6.719,0-9.602l0.402-0.96c4.841-2.639,9.881-5.759,14.721-8.398
		C129.691,77,130.299,77.241,130.299,77.479"/>
	<path fill="#FFFFFF" d="M100.052,94.519c-1.21,2.161-1.21,4.802-1.816,7.201l-1.208,6.481L93.6,126.92
		c-1.613,4.559-0.807,10.799-4.234,14.401c0-3.123-1.009-5.763-1.614-8.883l-5.04-19.198c-0.606-2.401-1.21-5.521-4.235-6.241
		v-0.241c2.822-1.679,5.444-3.839,8.468-4.799c-1.21,1.438-0.807,3.839-0.604,5.519c0.807,5.521,2.419,10.562,3.629,15.842
		c0.203,0,0.403,0.238,0.606,0.238c1.411-4.559,1.612-9.599,2.621-14.16c0.403-3.118,1.814-6.719,0.201-9.599
		c-0.201-0.479-0.807-0.96-1.21-0.96c2.017-1.679,4.638-3.12,7.259-4.321H100.052"/>
	<path fill="#FFFFFF" d="M175.668,108.92c0.804,1.438,0.804,3.839,0,5.519c-2.421,7.682-5.85,14.883-8.47,22.562
		c-0.202,3.84-0.202,8.398,0.199,12.24c0,0.72,1.01,1.198,1.414,1.92c-2.42,1.92-5.444,3.118-8.067,5.038
		c0.405-1.68,1.411-3.118,1.613-5.038c0-4.562,0-9.36-0.604-13.682c-2.218-4.8-4.638-9.599-7.258-14.398l-1.613-1.2
		c2.62-1.679,5.04-3.599,7.862-4.559c-0.402,1.679-1.411,4.318-0.199,6.238c1.61,2.88,2.417,5.763,4.03,8.398
		c0.808,0.241,0.808-0.957,1.411-1.197c1.816-6,5.043-11.281,5.647-17.519c0-2.161-1.009-4.321-3.024-5.04
		c-0.202-0.481,0.202-0.96,0.202-1.201c1.611-0.96,3.629-0.719,5.242,0C174.861,107.241,175.061,108.201,175.668,108.92"/>
	<path fill="#FFFFFF" d="M73.435,117.799c0,8.639,0,17.281,0.403,25.919c0.404,0.72,0.201,1.441,1.21,1.68
		c1.008,0.481,1.613-0.238,2.419-0.72c3.227-3.357,1.412-8.879,5.244-12h0.805c-1.208,2.88-1.411,6-1.208,9.121
		c-0.203,0.96,0,2.16-0.203,3.12c-4.032,2.639-8.468,5.04-12.703,7.438l-0.202-0.241l0.202-4.317l-0.202-21.84L69,116.599
		c-0.606-1.438-2.017-2.161-3.428-2.161c3.226-1.92,6.049-4.318,9.275-5.519C73.234,111.321,73.638,114.92,73.435,117.799"/>
	<path fill="#FFFFFF" d="M148.646,124.281c0,1.438-0.807,2.879-0.807,4.559v12.719l0.405,18.72c0.202,0.962,1.009,1.44,1.813,1.92
		c-2.218,1.682-4.233,2.882-6.653,3.839c0.604-2.157,0.202-4.077,0.202-6.237l-0.202-17.281c-0.199-0.24-0.402,0-0.604,0.241
		c-1.613,4.562-2.822,9.12-4.638,13.679c-0.807-0.24-1.411-1.198-1.813-2.16c-1.411-2.161-2.218-4.56-3.831-6.72
		c-0.405,0-0.807,0.241-0.807,0.479c0.401,7.682-0.203,14.401,0.401,22.08c0.604,0.481,1.411,0.963,1.816,1.683
		c-2.016,1.679-4.639,2.879-7.059,4.08c0.404-1.682,1.411-3.361,1.411-5.521l-0.199-15.84l-0.405-13.438
		c-0.402-1.441-1.813-2.16-3.024-2.642c1.815-1.198,3.629-2.88,5.847-3.117c2.218,3.599,4.236,7.438,6.454,11.037
		c0.807,0.481,0.807-0.72,1.209-0.96c1.411-6,3.227-11.76,5.043-17.76C144.814,125.96,146.63,125.241,148.646,124.281"/>
	<path fill="#FFFFFF" d="M43.592,128.599c-2.621,3.358-2.218,9.12-1.008,12.96c-1.613,0-2.42-1.441-3.428-2.398
		c-0.604,0-1.613,0.238-2.017-0.24c0.606-0.963,1.009-2.16,1.009-3.12c0-1.683-0.605-3.121-2.218-3.843
		c-2.017-1.197-4.84-0.957-6.856,0.481c-1.614,1.679-2.824,3.599-1.816,5.76c2.824,6.722,11.494,8.882,14.922,15.602
		c2.017,5.04,1.411,11.521-1.814,15.839c-2.823,3.361-7.058,5.281-11.897,4.56c-3.024-0.72-5.847-3.118-6.653-6
		c-1.008-3.118,0.201-5.76,2.419-7.438c1.613-1.201,4.034-1.201,5.445,0c0.807,0.48,1.21,1.2,1.21,2.16
		c-0.403,0.719-1.21-0.241-1.814,0.24c-0.807,0.479-1.816,1.198-2.017,1.92c0,1.438-0.201,2.16,0.403,3.118
		c1.411,1.682,3.226,2.16,5.445,1.919c2.621-0.716,5.443-3.599,5.847-6.716c1.21-11.284-13.51-12.963-15.93-22.562
		c-1.21-4.562,0.403-8.883,4.034-11.281c3.629-2.398,8.267-2.16,12.098-0.479c1.209-0.963,3.023-1.92,4.637-1.441V128.599"/>
	<path fill="#FFFFFF" d="M56.498,131l-0.807,0.24c-0.604,4.318-1.814,9.84-1.814,13.92c1.613-0.722,3.428-1.2,4.436-2.642
		L56.498,131 M58.312,116.361c-1.008,0.96-1.008,2.639-1.008,3.84c3.025,10.078,5.444,20.398,8.468,30.478
		c0.203,1.201,1.614,1.92,1.413,3.121c-2.42,1.44-4.84,3.12-7.663,4.08c2.017-3.12,0.807-6.479-0.201-9.602
		c-0.606-1.92-1.009-1.438-2.017-0.957c-1.21,0.479-2.823,1.438-3.428,1.679c-1.21,0.479-1.21,2.16-1.411,3.117
		c-0.403,1.92-2.42,7.204,0.604,8.643c0.604,0,0.807,0.24,1.21,0c-2.621,2.642-6.453,4.32-9.477,6
		c0.403-1.438,1.21-2.643,1.613-3.84c2.822-13.441,4.839-27.361,7.46-40.8C54.884,119.96,55.691,117.08,58.312,116.361z"/>
	<path fill="#FFFFFF" d="M113.765,148.519c-1.01,0-2.221,0.722-2.421,1.68c-0.404,4.562-0.202,9.839,0,14.642
		c0.2,0.719,1.007,0.719,1.614,0.719c1.813,0,3.426-1.2,4.233-2.639c1.41-4.08,2.622-9.599,0.202-13.441
		C116.384,148.76,115.176,148.519,113.765,148.519 M123.24,149.719c2.016,4.318,0.604,9.84-1.816,13.201
		c-1.006,2.16-4.436,2.639-3.831,5.519c1.414,5.76,3.024,11.76,8.27,15.361c1.209,0.719,2.822,0.719,4.233,0.479
		c0,1.44-1.613,2.16-2.822,2.4c-6.656,0.241-10.082-6.719-12.503-11.519c-1.006-2.4-1.813-4.802-2.42-6.962l-0.604-0.479
		l-0.402,0.479c-0.202,4.802,0.2,9.839,0,14.642c0.402,0.719,1.614,0.719,1.614,1.438c-2.019,1.682-4.236,2.882-6.654,3.839
		c1.007-4.317-0.204-8.877,0.2-13.438c-0.2-7.2-0.2-15.12-0.403-22.562c-0.403-0.716-1.008-1.438-1.814-1.438h-1.208
		c1.208-1.679,3.426-2.642,5.242-3.599c3.225-1.92,8.064-3.12,11.494-0.963C121.225,147.08,122.434,148.519,123.24,149.719z"/>
	<path fill="#FFFFFF" d="M90.979,165.8l-0.606,1.919c-0.807,5.041-2.017,9.84-2.218,14.88c2.218-0.24,4.033-1.679,6.049-2.88
		c0.201-0.719,0.201-1.2,0-1.682C92.994,173.96,92.591,169.639,90.979,165.8 M97.632,170.84l4.032,17.277
		c0,0.963,1.21,1.441,1.613,1.92c-2.017,1.682-4.234,2.642-6.25,3.364c1.008-3.123-0.606-6.481-1.413-9.364
		c-0.201-0.957-1.411-0.479-2.016-0.237c-2.42,1.2-4.84,2.398-6.856,4.08c-0.403,3.36-1.613,6.719-1.21,10.08
		c0.403,0.96,1.21,1.2,2.017,1.2l-0.202,0.479c-2.822,1.92-5.847,3.84-8.872,5.04c0.201-1.2,1.411-1.919,1.814-3.12
		c2.218-5.759,2.822-12,4.033-18.237c1.613-8.643,3.63-17.284,5.042-25.92c1.007-2.642,1.613-5.284,4.032-7.203
		C94.003,157.401,96.422,163.88,97.632,170.84z"/>
	<path fill="#EF3E42" d="M122.031,237.321c1.007,0,2.016,0,2.016-1.441c0-0.96-1.009-1.201-1.815-1.201h-1.813v2.643H122.031
		 M120.418,241.88h-1.212v-8.16h3.228c1.815,0,2.822,0.719,2.822,2.397c0,1.441-0.807,2.161-2.016,2.161l2.218,3.602h-1.411
		l-2.218-3.602h-1.411V241.88z M122.031,243.8c3.225,0,5.847-2.64,5.847-6c0-3.361-2.622-6-5.847-6c-3.227,0-5.85,2.639-5.85,6
		C116.182,241.16,118.805,243.8,122.031,243.8z M114.771,237.8c0-4.08,3.228-7.201,7.261-7.201c3.831,0,7.258,3.121,7.258,7.201
		s-3.427,7.2-7.258,7.2C117.998,245,114.771,241.88,114.771,237.8z"/>
	<path fill="#FFFFFF" d="M107.513,102.201l-0.607,0.238c-0.806,4.08-1.813,9.602-1.813,13.682c1.411-0.722,3.227-1.2,4.436-2.642
		L107.513,102.201 M112.15,105.559c1.411,5.281,2.418,11.041,4.031,16.321c0.202,0.719,1.411,1.2,1.411,1.679
		c-2.218,1.682-4.635,3.12-7.056,4.08c0.402-1.679,0.807-3.839,0.604-5.759l-1.009-3.599c-0.2-0.722-1.007-0.481-1.611-0.241
		c-1.413,1.438-4.033,1.679-5.042,3.599c0,2.879-1.411,5.281-0.805,8.161c0.403,0.96,1.612,0.96,2.822,0.96
		c-3.226,1.919-6.049,4.08-9.477,5.519h0.203c3.629-8.64,4.032-18.479,6.25-27.358c1.814-7.441,1.814-15.599,5.646-22.321
		l0.404-0.241C108.319,93.08,111.142,99.08,112.15,105.559z"/>
</g>
</svg>
